<svg xmlns="http://www.w3.org/2000/svg" viewBox="311.083 343.846 1256.654 231.802">
  <path d="M325.56 350.21c-1.65 1.03-2.36 2.6-3.07 5.72-.72 3.13-.26 5.27-.51 9.9-.25 4.64-.35 7.64-.75 13.29-.39 5.65-.61 8.65-1.23 14.95-.61 6.3-1.15 9.67-1.85 16.55-.7 6.88-1.08 10.6-1.67 17.83-.59 7.22-.87 10.99-1.29 18.3-.43 7.3-.63 11.07-.84 18.24-.22 7.16-.29 10.85-.26 17.57.04 6.72.21 10.06.43 16.02.22 5.95.37 8.81.67 13.76.3 4.96.4 7.55.83 11.01.42 3.46.46 4.52 1.28 6.29.82 1.77 1.88 2.04 2.81 2.57.92.54 1.3.17 1.82.11.53-.05.35-.17.79-.39.44-.21.82.08 1.43-.69.61-.78 1.49-1.3 1.62-3.18.14-1.88-.2-2.92-.94-6.23-.75-3.31-1.88-5.61-2.77-10.33-.9-4.73-1.18-7.49-1.71-13.29-.53-5.81-.75-9.12-.94-15.74-.19-6.62-.16-10.26-.01-17.35.16-7.08.35-10.83.8-18.08.44-7.24.75-10.98 1.42-18.14.68-7.16 1.08-10.84 1.96-17.65.89-6.81 1.5-10.16 2.48-16.42.97-6.25 1.47-9.25 2.41-14.85.93-5.6 1.47-8.56 2.27-13.14.8-4.59 1.74-6.57 1.74-9.77 0-3.21-.35-4.91-1.73-6.28a4.232 4.232 0 0 0-5.19-.58m92.45 9.1c-1.41-.91-2.17-.92-4.04-.71-1.87.21-3.14.24-5.3 1.78-2.15 1.53-2.97 3.27-5.46 5.88-2.5 2.62-3.82 4.23-7.01 7.19-3.2 2.97-5.11 4.47-8.96 7.64-3.85 3.16-6.12 4.93-10.27 8.18-4.15 3.25-6.38 4.94-10.5 8.07-4.12 3.14-6.24 4.7-10.11 7.61-3.87 2.92-5.84 4.29-9.24 6.97-3.41 2.67-5.04 3.83-7.78 6.4-2.74 2.57-4.18 3.61-5.91 6.45-1.74 2.84-2.3 4.54-2.76 7.75-.47 3.2-.52 5.09.43 8.28.95 3.2 1.83 4.96 4.3 7.7 2.47 2.74 4.35 3.74 8.06 5.99 3.72 2.25 5.94 3.17 10.5 5.27 4.57 2.1 7.07 3.08 12.31 5.24 5.25 2.16 8.13 3.28 13.93 5.57 5.79 2.29 8.97 3.53 15.06 5.87 6.08 2.35 9.67 3.67 15.36 5.84 5.7 2.17 8.64 3.61 13.11 5.01 4.47 1.41 7.12 2.46 9.24 2.02 2.12-.45 2.8-2.64 1.38-4.24s-4.17-2.03-8.48-3.76c-4.31-1.74-7.35-2.82-13.05-4.91-5.7-2.08-9.38-3.2-15.43-5.51-6.05-2.32-9.18-3.6-14.83-6.04s-8.47-3.71-13.43-6.17c-4.96-2.45-7.36-3.67-11.36-6.1-4.01-2.43-5.92-3.73-8.65-6.05-2.74-2.33-3.5-3.73-5.04-5.59-1.53-1.87-1.99-2.38-2.65-3.75-.65-1.37-.85-1.73-.61-3.12.24-1.39.74-1.96 1.81-3.83 1.06-1.87 1.57-3.09 3.52-5.52 1.96-2.43 3.32-3.84 6.27-6.63 2.96-2.79 4.84-4.3 8.51-7.32 3.68-3.02 5.78-4.62 9.87-7.76 4.09-3.13 6.34-4.8 10.58-7.93 4.25-3.12 6.56-4.82 10.65-7.68 4.1-2.87 6.15-4.28 9.83-6.65 3.68-2.38 5.48-3.45 8.59-5.22 3.11-1.77 4.94-1.98 6.97-3.62 2.03-1.64 2.46-2.83 3.17-4.58.72-1.75.93-2.55.41-4.15-.52-1.6-1.59-2.95-2.99-3.87m110.83 79.46c1.08-1.7 1.02-3.43.37-5.77-.65-2.34-1.53-3.72-3.61-5.94-2.07-2.22-3.66-3.64-6.75-5.16-3.09-1.53-5.04-1.86-8.7-2.45-3.65-.58-5.63-.61-9.6-.48-3.97.14-6.05.27-10.24 1.16-4.19.89-6.45 1.52-10.7 3.27-4.25 1.75-6.54 2.94-10.55 5.5-4.01 2.56-6 4.02-9.51 7.29-3.51 3.28-5.3 5.23-8.06 9.08-2.77 3.86-4.03 6.01-5.76 10.19-1.73 4.19-2.37 6.43-2.89 10.76-.53 4.32-.61 6.74.26 10.87.88 4.13 1.84 6.26 4.1 9.79 2.27 3.53 3.86 5.24 7.24 7.86 3.38 2.62 5.44 3.76 9.65 5.27 4.2 1.51 6.79 1.92 11.37 2.28 4.59.37 6.97.21 11.57-.46 4.6-.67 6.99-1.32 11.44-2.9 4.45-1.58 6.8-2.58 10.81-5.01 4.01-2.44 5.85-4.01 9.23-7.17 3.38-3.16 5.06-4.95 7.68-8.62 2.62-3.66 3.65-5.74 5.41-9.71 1.77-3.97 2.34-6.09 3.43-10.13 1.09-4.04 1.49-6.21 2.02-10.07.54-3.87 1.41-6.35.64-9.23-.78-2.89-2.32-4.23-4.51-5.2-2.19-.97-4.2-.87-6.43.35-2.23 1.21-4.03 2.81-4.73 5.73-.69 2.93.42 5.1 1.27 8.88.84 3.79 1.73 5.96 2.95 10.06 1.22 4.09 1.75 6.3 3.15 10.4 1.41 4.09 2.16 6.15 3.87 10.07 1.72 3.92 2.69 5.95 4.71 9.52 2.03 3.57 3.17 5.61 5.42 8.31 2.24 2.7 3.57 3.96 5.82 5.18 2.25 1.22 3.84 1.36 5.44.92 1.6-.44 2.33-1.55 2.56-3.12.23-1.57-.3-2.73-1.41-4.71-1.12-1.99-2.18-2.89-4.15-5.21-1.97-2.32-3.65-3.49-5.69-6.4-2.05-2.9-2.98-4.67-4.55-8.12-1.57-3.46-2.27-5.38-3.31-9.15-1.04-3.77-1.51-5.89-1.9-9.72-.4-3.84-.11-6.08-.06-9.46.04-3.38.96-5.12.27-7.44-.69-2.31-2.04-3.3-3.72-4.14-1.68-.83-3.17-.92-4.67-.03s-2.56 2.09-2.82 4.49c-.26 2.4 1.33 4.3 1.51 7.51.19 3.21.05 5.09-.58 8.55-.62 3.47-1.15 5.36-2.52 8.76-1.37 3.41-2.16 5.14-4.31 8.28-2.15 3.15-3.6 4.73-6.45 7.45-2.85 2.72-4.41 4.09-7.83 6.17-3.41 2.08-5.44 2.93-9.26 4.24-3.83 1.31-5.97 1.84-9.87 2.32-3.89.49-5.89.51-9.62.1-3.73-.4-5.81-.87-9.02-2.11-3.21-1.23-4.61-2.12-7.04-4.06-2.43-1.95-3.48-3.19-5.1-5.66-1.63-2.46-2.33-3.75-3.03-6.67-.71-2.91-.79-4.62-.49-7.92.3-3.3.66-5.14 1.97-8.57 1.32-3.43 2.29-5.3 4.59-8.59s3.86-5.04 6.92-7.85c3.05-2.8 4.83-4.06 8.37-6.16 3.54-2.11 5.62-3.08 9.31-4.36 3.7-1.28 5.64-1.64 9.16-2.06 3.51-.42 5.3-.32 8.41-.03 3.11.29 4.77.68 7.15 1.49 2.38.82 3.06 1.4 4.74 2.58 1.68 1.19 2.23 2.1 3.66 3.33 1.43 1.23 1.89 1.92 3.48 2.83 1.59.91 2.56 1.94 4.46 1.74 1.9-.21 3.95-1.04 5.03-2.74m89.89-18c-.66-1.91-1.95-3.12-4.41-4.22-2.45-1.1-4.4-1.21-7.86-1.29-3.46-.08-5.71.38-9.43.9-3.73.52-5.63.88-9.19 1.69-3.56.82-5.6.86-8.6 2.37-3.01 1.51-4.53 2.69-6.41 5.18-1.88 2.49-2.68 4.21-2.99 7.28-.31 3.06-.18 5.2 1.42 8.03 1.6 2.82 3.16 4.05 6.56 6.09 3.41 2.04 5.81 2.46 10.46 4.12 4.65 1.65 7.4 2.42 12.81 4.15 5.4 1.74 8.54 2.61 14.22 4.52 5.67 1.9 8.81 2.91 14.14 5.01 5.33 2.1 8.05 3.25 12.52 5.49 4.47 2.23 6.74 3.47 9.83 5.68 3.09 2.21 3.98 3.68 5.62 5.36 1.64 1.68 2.17 2.12 2.59 3.03.43.91.33.89-.45 1.52-.79.63-1.57.49-3.48 1.64-1.91 1.14-2.89 2.53-6.09 4.08-3.19 1.55-5.46 2.45-9.89 3.66-4.42 1.21-7.19 1.77-12.23 2.4-5.05.63-7.85.77-12.99.75-5.14-.02-7.99-.15-12.7-.85-4.72-.69-7.16-1.29-10.86-2.63-3.7-1.34-5.39-2.37-7.63-4.07-2.24-1.71-2.77-2.7-3.55-4.45-.78-1.76-.34-2.51-.34-4.31 0-1.8.51-2.82.32-4.68-.18-1.86-.07-3.34-1.23-4.63s-2.72-2.25-4.56-1.84c-1.85.42-3.46 1.54-4.67 3.91-1.22 2.37-1.71 4.56-1.41 7.93.31 3.37.85 5.8 2.94 8.9 2.09 3.11 3.98 4.47 7.52 6.62 3.55 2.16 5.69 2.86 10.19 4.15 4.51 1.29 7.15 1.68 12.33 2.29 5.18.61 8.12.68 13.59.75 5.48.07 8.36-.01 13.77-.4 5.42-.39 8.3-.74 13.29-1.55 5-.81 7.49-1.25 11.69-2.49 4.19-1.24 6.39-1.54 9.28-3.71 2.89-2.16 4.05-4.02 5.18-7.1 1.12-3.09 1.19-5.17.45-8.31-.73-3.15-1.62-4.86-4.12-7.41s-4.49-3.23-8.39-5.33c-3.9-2.1-6.27-3.07-11.11-5.15-4.84-2.09-7.61-3.16-13.08-5.26-5.47-2.09-8.65-3.13-14.29-5.21-5.63-2.08-8.76-3.07-13.89-5.19-5.12-2.11-7.78-3.23-11.72-5.39-3.95-2.15-5.6-3.68-8-5.38-2.39-1.7-2.92-2.36-3.97-3.12-1.05-.75-1.34-.37-1.28-.65.05-.29.43-.3 1.56-.76 1.12-.45 2.01-.76 4.06-1.52 2.05-.77 3.4-1.63 6.19-2.29 2.79-.66 4.61-.85 7.76-1.01 3.16-.16 5.11.15 8 .2 2.9.05 4.2.5 6.48.06 2.28-.44 3.73-.75 4.94-2.26 1.21-1.51 1.77-3.4 1.11-5.3m64.77 18.81c-1.45 1.01-1.95 2.09-2.32 4.24-.36 2.15-.17 3.36.49 6.53.66 3.17 1.74 5.19 2.81 9.33 1.08 4.13 1.62 6.49 2.57 11.35.94 4.85 1.39 7.48 2.16 12.92.77 5.45 1.03 8.46 1.71 14.31.68 5.85 1.08 9.01 1.7 14.94.62 5.92.92 8.97 1.4 14.69.48 5.71.73 8.65 1.01 13.88.27 5.24.45 7.91.38 12.29-.07 4.39-.79 6.57-.72 9.65.07 3.07.48 4.07 1.07 5.72.58 1.65.88 2 1.87 2.52.98.53 2.15.31 3.04.1.9-.21 2-1.13 1.44-1.15-.56-.02-3.76.7-4.23 1.04-.47.35.9.77 1.89.7.98-.07 2.15-.29 3.04-1.04.9-.75 1.06-1.05 1.44-2.71.37-1.67.64-2.56.44-5.62s-.85-5.26-1.44-9.68c-.59-4.41-.92-7.12-1.51-12.37-.6-5.26-.88-8.19-1.46-13.92-.59-5.73-.89-8.8-1.48-14.74-.6-5.94-.96-9.09-1.5-14.97-.54-5.88-.75-8.89-1.22-14.42-.47-5.52-.76-8.2-1.13-13.19-.37-4.99-.51-7.4-.7-11.76-.18-4.35.22-6.74-.24-10.01-.46-3.28-.95-4.49-2.06-6.37s-1.8-2.6-3.49-3.05c-1.69-.45-3.5-.21-4.96.79" style="stroke:#000;fill:#000"/>
  <path d="M681.04 443.36c1.98-.05 3.15-1.29 5.14-3.09 1.99-1.79 2.32-3.5 4.8-5.9 2.49-2.39 4.09-4.11 7.64-6.07s5.75-2.63 10.12-3.73c4.37-1.1 7-1.52 11.71-1.77 4.71-.25 7.29-.13 11.86.54 4.57.66 6.95 1.25 10.98 2.81 4.04 1.55 6.04 2.67 9.2 4.97 3.16 2.3 4.56 3.82 6.59 6.54 2.03 2.71 2.74 4.18 3.56 7.03.82 2.85.88 4.23.56 7.23-.32 2.99-.73 4.65-2.17 7.75-1.45 3.1-2.45 4.8-5.05 7.75-2.61 2.95-4.39 4.45-7.98 7-3.59 2.56-5.69 3.79-9.97 5.77-4.29 1.98-6.81 2.85-11.46 4.13-4.65 1.28-7.31 1.77-11.79 2.28-4.49.52-6.79.61-10.64.3-3.85-.3-5.66-1.27-8.63-1.81-2.97-.55-4.14-.89-6.23-.9-2.09-.02-3.09-.03-4.24.82-1.15.84-1.83 1.92-1.52 3.42.32 1.49 1.04 2.76 3.1 4.07 2.06 1.31 3.73 1.92 7.2 2.48 3.48.56 5.78.47 10.18.31 4.4-.17 6.9-.36 11.82-1.13 4.91-.78 7.68-1.32 12.74-2.75 5.05-1.44 7.76-2.32 12.53-4.43 4.77-2.1 7.12-3.31 11.33-6.09 4.21-2.77 6.41-4.31 9.73-7.79 3.31-3.47 4.84-5.53 6.84-9.59 2.01-4.05 2.77-6.39 3.2-10.67.42-4.28.22-6.66-1.07-10.74-1.29-4.07-2.56-6.15-5.38-9.64-2.83-3.5-4.76-5.16-8.73-7.83-3.96-2.67-6.37-3.8-11.1-5.51-4.73-1.71-7.39-2.31-12.54-3.05-5.16-.75-7.96-.84-13.23-.67-5.26.16-8.01.52-13.09 1.5-5.07.97-7.76 1.45-12.29 3.38-4.52 1.93-6.87 3.64-10.35 6.25-3.48 2.61-5.45 4.01-7.07 6.81-1.61 2.8-1.76 5.18-1.02 7.19.74 2 2.75 2.88 4.72 2.83" style="stroke:#000;fill:#000"/>
  <path d="M850.43 437.66c.69-1.85.31-3.41-.75-5.47-1.05-2.06-2.15-3.13-4.52-4.82-2.38-1.69-4.12-2.75-7.36-3.63-3.25-.88-5.19-.81-8.86-.76-3.66.04-5.54.3-9.46.98-3.91.68-6.03 1.11-10.1 2.42-4.07 1.3-6.19 2.15-10.23 4.11-4.04 1.95-6.26 3.13-9.98 5.66-3.72 2.52-5.49 3.9-8.6 6.96-3.11 3.05-4.62 4.75-6.93 8.3-2.31 3.55-3.48 5.53-4.62 9.44-1.15 3.9-1.42 6.1-1.1 10.06.32 3.97.89 6.17 2.69 9.76 1.8 3.58 3.22 5.41 6.3 8.17 3.08 2.77 5.07 3.94 9.11 5.65 4.05 1.72 6.48 2.29 11.13 2.91 4.65.62 7.29.61 12.13.2 4.85-.42 7.36-.95 12.11-2.28 4.75-1.32 7.28-2.25 11.64-4.34 4.35-2.09 6.45-3.4 10.14-6.11 3.69-2.71 5.42-4.23 8.32-7.42 2.9-3.2 4.21-4.97 6.17-8.55 1.96-3.58 2.62-5.63 3.63-9.37 1.01-3.74 1.13-5.66 1.41-9.31.28-3.65.64-5.73-.02-8.95-.67-3.21-1.37-5.26-3.3-7.13-1.92-1.88-3.87-2.34-6.33-2.23-2.45.11-4.11.93-5.94 2.79-1.83 1.85-3.04 3.48-3.21 6.48-.16 3 1.18 4.93 2.37 8.53 1.19 3.6 2.11 5.58 3.6 9.47 1.49 3.88 2.14 5.97 3.86 9.95 1.72 3.98 2.71 6.07 4.74 9.93 2.03 3.87 3.01 5.86 5.41 9.39 2.4 3.53 3.82 5.26 6.6 8.28 2.78 3.02 4.28 4.48 7.32 6.83 3.03 2.36 4.83 3.82 7.84 4.93 3.02 1.1 4.87.93 7.22.6 2.35-.32 3.57-.97 4.55-2.22.98-1.24.89-2.63.35-4-.54-1.38-1.52-1.78-3.05-2.89-1.53-1.12-2.37-1.69-4.62-2.68-2.24-.98-4-.83-6.59-2.25-2.6-1.41-3.91-2.49-6.37-4.83-2.47-2.33-3.78-3.81-5.95-6.85-2.17-3.04-3.12-4.83-4.91-8.35-1.79-3.52-2.73-5.5-4.04-9.24-1.32-3.73-1.83-5.71-2.54-9.44-.7-3.73-.76-5.96-.98-9.21-.23-3.26.4-4.92-.16-7.07-.56-2.15-1.35-2.79-2.65-3.69-1.31-.91-2.55-1.27-3.88-.84-1.33.44-2.39 1.33-2.77 3.01-.38 1.69.36 3.07.88 5.4.51 2.34 1.42 3.62 1.71 6.29.29 2.68.21 4.21-.28 7.11-.48 2.89-.84 4.48-2.16 7.37-1.32 2.89-2.2 4.35-4.44 7.07-2.23 2.72-3.66 4.12-6.74 6.53s-4.89 3.64-8.67 5.51c-3.79 1.86-6.09 2.71-10.26 3.83-4.17 1.11-6.42 1.51-10.58 1.73-4.16.22-6.45.05-10.22-.64-3.77-.68-5.67-1.34-8.63-2.78-2.96-1.44-4.15-2.44-6.18-4.42-2.02-1.97-2.78-3.13-3.93-5.44-1.14-2.31-1.53-3.58-1.81-6.11-.28-2.53-.28-3.82.42-6.56.69-2.73 1.37-4.31 3.06-7.13 1.69-2.81 2.87-4.37 5.39-6.95 2.53-2.58 4.03-3.8 7.25-5.94 3.22-2.14 5.27-3.2 8.85-4.76 3.59-1.56 5.51-2.21 9.07-3.06 3.56-.84 5.47-1.02 8.71-1.16 3.24-.15 4.93 0 7.49.45 2.55.44 3.39.92 5.29 1.76 1.91.85 2.59 1.6 4.22 2.46 1.64.87 2.26 1.4 3.96 1.86 1.7.47 2.8 1.13 4.55.47 1.76-.66 3.53-1.92 4.23-3.77m65.41 3.58c-1.65.82-2.33 1.87-3.11 4.05-.78 2.17-1.02 3.71-.78 6.81.24 3.1 1.18 5.11 1.97 8.71.8 3.6 1.23 5.55 2.01 9.28.77 3.74 1.27 5.72 1.86 9.38.58 3.66.8 5.6 1.07 8.93.28 3.34-.43 5.26.29 7.76.73 2.51 1.6 3.79 3.33 4.77 1.73.98 3.46 1 5.33.15 1.88-.86 3.36-2.11 4.05-4.42s.33-4.06-.59-7.13c-.92-3.08-2.55-4.83-3.99-8.23-1.45-3.4-2.13-5.28-3.25-8.78-1.12-3.5-1.61-5.3-2.36-8.74-.74-3.43-1.09-5.21-1.37-8.43-.28-3.21-.27-4.79-.04-7.64.22-2.86.43-4.22 1.15-6.63.73-2.41 1.17-3.4 2.47-5.42 1.3-2.03 1.93-2.95 4.02-4.71 2.1-1.76 3.38-2.66 6.46-4.09 3.09-1.42 5.01-2.08 8.98-3.02 3.98-.94 6.3-1.37 10.91-1.67 4.6-.3 7.18-.2 12.1.17 4.92.38 7.55.73 12.49 1.71 4.94.97 7.8 1.95 12.23 3.19 4.43 1.23 6.5 2.32 9.92 2.98 3.42.66 5.48 1.09 7.18.32 1.71-.77 2.31-2.54 1.35-4.17-.97-1.63-2.88-2.62-6.18-3.98-3.29-1.36-5.65-1.72-10.29-2.82-4.63-1.11-7.66-1.81-12.87-2.72-5.22-.9-7.95-1.31-13.2-1.82-5.24-.5-7.98-.76-13.04-.69-5.05.07-7.61.3-12.24 1.04-4.64.74-6.91 1.17-10.93 2.65-4.03 1.47-6.03 2.4-9.21 4.72-3.17 2.32-4.58 3.82-6.69 6.87-2.1 3.06-2.83 4.91-3.84 8.41-1.01 3.5-1.08 5.42-1.22 9.09-.14 3.68.06 5.55.51 9.28.45 3.74.96 5.67 1.74 9.42.77 3.74 1.32 5.57 2.11 9.3.79 3.73 1.3 5.7 1.83 9.34.53 3.64.14 5.85.82 8.86.68 3.01.97 4.51 2.58 6.21 1.62 1.7 3.38 2.24 5.49 2.28 2.1.05 3.69-.55 5.03-2.06 1.33-1.51 1.72-2.89 1.66-5.5-.07-2.61-1.19-4.25-1.98-7.55-.78-3.31-1.24-5.32-1.93-8.97-.7-3.64-1.13-5.6-1.54-9.27-.42-3.67-.45-5.57-.53-9.09-.08-3.51.42-5.56.14-8.47-.29-2.91-.62-4.14-1.57-6.08-.95-1.94-1.51-2.91-3.17-3.62-1.67-.72-3.5-.78-5.16.04m245.61-56.44c-1.63.71-2.34 1.57-3.13 3.68-.79 2.11-.76 3.46-.81 6.88-.06 3.41.45 5.62.52 10.19.07 4.58-.01 7.26-.16 12.67-.16 5.41-.36 8.34-.62 14.37-.25 6.03-.43 9.38-.65 15.78-.21 6.39-.24 9.75-.42 16.19-.17 6.44-.27 9.83-.47 16.03-.19 6.2-.39 9.33-.51 14.96-.13 5.64-.29 8.49-.11 13.22.17 4.72-.23 8.35 1 10.4 1.22 2.05 4.02 1.95 5.12-.15 1.11-2.1.34-5.66.39-10.34.05-4.68-.11-7.47-.12-13.06-.01-5.59-.02-8.72.07-14.9.09-6.17.18-9.57.38-15.99.19-6.42.24-9.76.59-16.1.35-6.34.6-9.65 1.15-15.61.54-5.96.87-8.86 1.58-14.21.71-5.34 1.17-8 1.97-12.52s1.6-6.65 2.03-10.09c.43-3.45.69-4.89.13-7.15-.56-2.25-1.35-3.28-2.94-4.13-1.58-.85-3.37-.83-4.99-.12" style="stroke:#000;fill:#000"/>
  <path d="M1162.43 373.32c-1.05 1.1-1.58 1.63-1.73 3.45-.15 1.82-.3 3.15.99 5.64 1.3 2.5 3.24 3.39 5.51 6.83 2.27 3.44 3.47 5.76 5.85 10.39 2.39 4.63 3.57 7.29 6.08 12.76 2.5 5.48 3.79 8.54 6.46 14.62s3.94 9.42 6.89 15.79c2.94 6.38 4.63 9.79 7.83 16.09 3.2 6.31 4.93 9.5 8.19 15.44 3.26 5.94 4.91 8.89 8.11 14.27 3.19 5.38 4.85 8 7.88 12.63 3.03 4.62 4.49 6.71 7.27 10.48 2.77 3.76 4.02 5.53 6.6 8.35 2.59 2.81 3.65 4.29 6.31 5.73 2.66 1.44 4.2 1.62 6.98 1.47 2.78-.16 4.47-.57 6.9-2.24 2.43-1.66 4.11-3 5.25-6.1 1.15-3.09.52-5.21.47-9.37-.04-4.16-.39-6.44-.69-11.42-.3-4.98-.45-7.77-.8-13.48-.35-5.71-.53-8.82-.97-15.08-.43-6.26-.71-9.58-1.2-16.22-.49-6.65-.71-10.23-1.24-17.02-.54-6.79-.81-10.27-1.42-16.94-.61-6.66-.89-10.05-1.64-16.36-.74-6.32-1.25-9.43-2.08-15.2-.84-5.77-1.26-8.58-2.1-13.66-.84-5.08-1.38-7.55-2.12-11.75-.74-4.19-.54-6.44-1.58-9.21-1.04-2.77-2.28-3.37-3.6-4.64-1.32-1.26-1.84-1.6-2.98-1.71-1.14-.1-2 .33-2.72 1.2-.71.86-.72 1.45-.85 3.14-.12 1.7-.56 2.67.23 5.33.78 2.67 2.3 4.19 3.71 7.99 1.4 3.8 2.11 6.16 3.33 11.02 1.22 4.85 1.72 7.62 2.76 13.26 1.04 5.64 1.6 8.71 2.45 14.93.85 6.22 1.16 9.57 1.8 16.17.63 6.6.9 10.07 1.39 16.83.48 6.76.68 10.35 1.03 16.97.36 6.63.57 9.95.74 16.16.17 6.22.22 9.31.11 14.94-.1 5.63-.2 8.45-.64 13.21-.44 4.76-.81 7.1-1.54 10.58-.74 3.48-1.83 4.79-2.15 6.83-.32 2.04.45 2.61.55 3.37.1.76.4.72-.03.42-.42-.3-.6-.81-2.1-1.93-1.5-1.12-2.88-1.65-5.4-3.69-2.51-2.04-4.19-3.32-7.17-6.51-2.98-3.19-4.55-5.14-7.73-9.43-3.19-4.29-4.92-6.83-8.21-12.01-3.29-5.18-4.97-8.07-8.26-13.9-3.28-5.82-5.01-8.99-8.16-15.22-3.16-6.23-4.79-9.59-7.61-15.93-2.82-6.35-4.03-9.67-6.48-15.81-2.44-6.13-3.63-9.25-5.76-14.89-2.13-5.65-3.18-8.34-4.88-13.32-1.7-4.99-2.47-7.46-3.63-11.59-1.15-4.14-.79-6.43-2.14-9.11-1.35-2.68-2.89-3.38-4.59-4.31-1.7-.92-2.42-.65-3.91-.3-1.49.35-2.5.95-3.56 2.06" style="stroke:#000;fill:#000"/>
  <path d="M1342.7 448.96c.91-1.74.76-3.25-.02-5.49-.77-2.25-1.65-3.67-3.85-5.73-2.2-2.07-3.99-3.3-7.15-4.61-3.16-1.3-5.03-1.47-8.65-1.92-3.63-.46-5.51-.53-9.47-.34-3.95.18-6.12.34-10.31 1.28s-6.43 1.67-10.65 3.41c-4.22 1.75-6.44 2.83-10.45 5.32-4.01 2.48-6.02 3.92-9.58 7.11-3.57 3.19-5.39 4.98-8.22 8.82-2.83 3.85-4.24 6.07-5.94 10.41-1.71 4.34-2.32 6.8-2.58 11.28-.26 4.48-.09 6.88 1.27 11.11 1.35 4.22 2.48 6.44 5.48 10.03 3 3.6 5.17 5.3 9.53 7.94 4.35 2.65 6.93 3.66 12.24 5.29 5.32 1.64 8.4 2.21 14.35 2.88 5.95.67 9.3.75 15.4.49s9.27-.72 15.09-1.79c5.83-1.06 8.87-1.77 14.04-3.54s7.57-2.81 11.82-5.29c4.24-2.49 6.28-3.94 9.4-7.14 3.12-3.2 4.49-5.06 6.2-8.86 1.7-3.79 2.16-6.05 2.34-10.11.17-4.07-.22-6.31-1.47-10.21-1.24-3.91-2.37-5.89-4.74-9.32-2.37-3.42-4.11-5.02-7.13-7.82-3.02-2.8-4.81-4.07-7.96-6.17-3.15-2.09-4.98-3.47-7.8-4.3-2.83-.82-4.35-.25-6.33.17-1.97.43-2.76.9-3.54 1.96-.79 1.05-.73 2.12-.4 3.31.34 1.19.91 1.45 2.07 2.62 1.16 1.17 1.63 2.09 3.73 3.22 2.1 1.13 4.05 1.07 6.77 2.41 2.73 1.35 4.33 2.25 6.83 4.31 2.5 2.06 3.85 3.46 5.68 5.99 1.83 2.54 2.54 3.97 3.49 6.7.94 2.73 1.21 4.17 1.25 6.94.04 2.77-.06 4.16-1.05 6.9s-1.65 4.16-3.89 6.8c-2.23 2.64-3.78 4.09-7.29 6.42-3.5 2.32-5.59 3.44-10.23 5.2-4.64 1.75-7.54 2.51-12.97 3.57-5.42 1.05-8.45 1.49-14.15 1.69-5.7.2-8.88.05-14.34-.71-5.45-.76-8.29-1.45-12.94-3.09s-6.8-2.75-10.3-5.09c-3.51-2.34-5.04-3.83-7.24-6.62s-2.83-4.26-3.77-7.34c-.93-3.08-1.08-4.7-.9-8.06.18-3.37.51-5.3 1.82-8.77 1.31-3.47 2.37-5.37 4.72-8.6 2.36-3.23 3.94-4.83 7.04-7.55 3.11-2.71 4.94-3.98 8.5-6.03 3.56-2.06 5.6-2.94 9.31-4.24 3.71-1.29 5.68-1.74 9.22-2.22 3.55-.49 5.38-.44 8.5-.19s4.69.6 7.11 1.42c2.42.81 3.17 1.5 5 2.66 1.82 1.15 2.54 2 4.13 3.11 1.59 1.12 2.14 1.76 3.82 2.47 1.68.72 2.74 1.52 4.57 1.1 1.83-.42 3.67-1.46 4.59-3.19" style="stroke:#000;fill:#000"/>
  <path d="M1445.78 460.01c.97-1.77.85-3.51.05-5.88-.81-2.37-1.79-3.81-4.1-5.97-2.3-2.16-4.1-3.5-7.43-4.84-3.32-1.33-5.41-1.43-9.18-1.83-3.76-.41-5.55-.4-9.64-.17-4.09.23-6.39.42-10.81 1.32-4.41.91-6.83 1.54-11.26 3.2-4.43 1.66-6.74 2.73-10.88 5.12-4.15 2.39-6.24 3.76-9.84 6.82-3.61 3.07-5.45 4.84-8.21 8.52-2.77 3.69-4.14 5.77-5.62 9.91-1.48 4.14-1.94 6.46-1.77 10.78.18 4.32.71 6.75 2.65 10.82s3.5 6.14 7.03 9.55c3.54 3.41 5.87 4.96 10.64 7.51 4.76 2.55 7.55 3.66 13.17 5.24 5.63 1.58 8.81 2.11 14.95 2.66 6.15.56 9.48.55 15.78.11 6.29-.44 9.63-.97 15.7-2.31 6.07-1.33 9.24-2.28 14.65-4.36 5.41-2.08 8.03-3.29 12.39-6.05 4.35-2.76 6.37-4.27 9.39-7.74 3.02-3.48 4.24-5.59 5.71-9.63 1.47-4.05 1.81-6.46 1.63-10.6-.18-4.14-.97-6.24-2.52-10.11-1.55-3.88-2.69-5.87-5.22-9.28-2.53-3.41-4.32-5-7.43-7.75-3.12-2.76-5-3.93-8.16-6.03s-4.89-3.42-7.64-4.47c-2.75-1.06-4.14-.94-6.1-.81-1.96.13-2.71.83-3.7 1.47-1 .65-1.01 1.01-1.28 1.75-.27.73-.17 1.17-.07 1.92.1.74.08.95.57 1.81.49.85.7 1.47 1.89 2.47 1.18 1 1.84 1.52 4.04 2.53 2.2 1.01 4.14 1.14 6.97 2.51 2.84 1.37 4.55 2.27 7.2 4.34 2.66 2.08 4.04 3.4 6.07 6.03 2.03 2.64 2.85 4.29 4.09 7.14 1.24 2.85 1.8 4.23 2.1 7.11.31 2.89.24 4.36-.58 7.31-.82 2.94-1.36 4.56-3.52 7.42-2.16 2.85-3.63 4.3-7.27 6.85-3.64 2.55-6.02 3.85-10.93 5.9-4.91 2.05-7.93 3.05-13.61 4.36-5.68 1.31-8.87 1.82-14.78 2.19-5.9.38-9.06.31-14.73-.33-5.68-.65-8.62-1.27-13.64-2.89-5.02-1.62-7.47-2.82-11.47-5.22-4-2.4-5.82-3.95-8.51-6.8-2.69-2.84-3.62-4.44-4.94-7.43-1.32-2.99-1.57-4.51-1.67-7.53-.11-3.02.07-4.47 1.14-7.55 1.06-3.07 1.98-4.78 4.16-7.81 2.18-3.03 3.69-4.68 6.74-7.32 3.06-2.65 4.91-3.9 8.56-5.92 3.65-2.02 5.76-2.91 9.7-4.19 3.93-1.29 6.11-1.72 9.97-2.23 3.86-.51 5.95-.51 9.33-.32 3.37.19 4.94.48 7.53 1.26 2.6.78 3.55 1.41 5.44 2.62 1.89 1.21 2.45 2.18 4.02 3.43 1.57 1.25 2.14 1.93 3.83 2.8 1.69.87 2.71 1.83 4.6 1.54 1.88-.28 3.84-1.19 4.82-2.95m61.32.44c-1.63.54-2.26 1.19-3.24 2.81-.99 1.62-1.52 2.83-1.68 5.31-.15 2.48.35 4.03.88 7.09.53 3.06 1.13 4.76 1.76 8.21.63 3.45.87 5.42 1.37 9.05.5 3.64.84 5.64 1.13 9.13.29 3.49.02 5.4.33 8.31.3 2.91.21 4.4 1.17 6.24.96 1.84 1.93 2.67 3.64 2.95 1.71.28 3.48-.13 4.9-1.55 1.42-1.43 2.44-3.02 2.2-5.58-.23-2.56-1.88-4.01-3.37-7.22-1.5-3.21-2.69-5.2-4.11-8.84-1.42-3.64-2.03-5.7-2.98-9.36-.95-3.65-1.39-5.47-1.77-8.92-.38-3.44-.35-5.13-.12-8.3.23-3.18.47-4.71 1.28-7.56.81-2.86 1.23-4.2 2.75-6.74s2.41-3.74 4.85-5.97c2.43-2.22 3.9-3.35 7.32-5.16 3.42-1.81 5.42-2.67 9.76-3.87 4.35-1.21 7.4-1.5 11.98-2.15 4.58-.65 7.23-.47 10.92-1.1 3.7-.62 6.09-.68 7.57-2.02 1.49-1.34 1.48-3.42-.14-4.66-1.63-1.24-4.09-1.44-8-1.54-3.9-.09-6.65.34-11.54 1.06-4.9.72-8.07 1.23-12.94 2.55-4.87 1.33-7.22 2.09-11.42 4.06-4.19 1.98-6.24 3.08-9.56 5.81-3.32 2.73-4.84 4.44-7.04 7.84-2.19 3.41-2.87 5.44-3.94 9.21-1.08 3.77-1.23 5.73-1.43 9.64-.21 3.92-.05 5.94.39 9.93.45 3.99 1.02 5.99 1.82 10.01s1.44 6.08 2.2 10.09c.76 4.02.91 6.4 1.59 9.99.67 3.6.36 5.63 1.77 7.98 1.42 2.35 2.98 3.17 5.3 3.76 2.32.6 4.38.34 6.28-.77 1.9-1.11 2.68-2.52 3.2-4.77.53-2.26-.13-3.59-.56-6.53-.43-2.94-1.01-4.72-1.58-8.15-.57-3.44-.92-5.46-1.26-9.03-.34-3.57-.47-5.44-.44-8.82.03-3.38.46-5.09.6-8.08.15-2.99.5-4.54.13-6.87s-.96-3.31-1.97-4.78c-1.01-1.46-1.5-2.02-3.1-2.56s-3.28-.67-4.9-.13" style="stroke:#000;fill:#000"/>
</svg>
