<svg xmlns="http://www.w3.org/2000/svg" width="1256.654052734375" height="231.802001953125" style=""><rect id="backgroundrect" width="100%" height="100%" x="0" y="0" fill="none" stroke="none"/>
  
  
  
  
  
  
<g class="currentLayer" style=""><title>Layer 1</title><path d="M14.51028877258301,16.50835820198057 c-1.6500000000000006,1.03 -2.36,2.6 -3.07,5.72 c-0.7200000000000003,3.13 -0.26,5.27 -0.51,9.9 c-0.25,4.6400000000000015 -0.35000000000000014,7.6400000000000015 -0.7500000000000003,13.29 c-0.3900000000000002,5.65 -0.6100000000000003,8.65 -1.23,14.95 c-0.6100000000000003,6.3 -1.15,9.67 -1.85,16.55 c-0.7000000000000003,6.88 -1.08,10.6 -1.6700000000000006,17.83 c-0.5900000000000003,7.22 -0.8700000000000003,10.99 -1.29,18.3 c-0.43000000000000016,7.3 -0.6300000000000003,11.07 -0.8400000000000003,18.24 c-0.22000000000000008,7.16 -0.29000000000000015,10.85 -0.26,17.57 c0.04000000000000002,6.72 0.21000000000000008,10.06 0.43000000000000016,16.02 c0.22000000000000008,5.95 0.37000000000000016,8.81 0.6700000000000006,13.76 c0.30000000000000016,4.96 0.4,7.55 0.8300000000000003,11.01 c0.42000000000000015,3.46 0.46,4.52 1.28,6.29 c0.8200000000000003,1.77 1.8800000000000003,2.04 2.81,2.5700000000000003 c0.92,0.54 1.3,0.17 1.82,0.11000000000000004 c0.53,-0.05000000000000003 0.35000000000000014,-0.17 0.79,-0.3900000000000002 c0.44000000000000017,-0.21000000000000008 0.8200000000000003,0.08000000000000004 1.4300000000000002,-0.6900000000000006 c0.6100000000000003,-0.78 1.49,-1.3 1.62,-3.18 c0.14,-1.8800000000000003 -0.2,-2.92 -0.9400000000000003,-6.23 c-0.7500000000000003,-3.31 -1.8800000000000003,-5.61 -2.77,-10.33 c-0.9,-4.73 -1.18,-7.49 -1.71,-13.29 c-0.53,-5.8100000000000005 -0.7500000000000003,-9.12 -0.9400000000000003,-15.74 c-0.19000000000000009,-6.62 -0.1600000000000001,-10.26 -0.010000000000000005,-17.35 c0.1600000000000001,-7.08 0.35000000000000014,-10.83 0.8,-18.08 c0.44000000000000017,-7.24 0.7500000000000003,-10.98 1.42,-18.14 c0.6800000000000006,-7.16 1.08,-10.84 1.96,-17.65 c0.8900000000000003,-6.8100000000000005 1.5,-10.16 2.48,-16.42 c0.97,-6.25 1.47,-9.25 2.41,-14.85 c0.93,-5.6 1.47,-8.56 2.27,-13.14 c0.8,-4.59 1.7400000000000002,-6.57 1.7400000000000002,-9.77 c0,-3.21 -0.35000000000000014,-4.91 -1.73,-6.28 a4.232,4.232 0 0 0 -5.19,-0.5800000000000003 m92.45,9.1 c-1.4100000000000001,-0.91 -2.17,-0.92 -4.04,-0.7100000000000003 c-1.87,0.21000000000000008 -3.14,0.24000000000000007 -5.3,1.78 c-2.15,1.53 -2.9699999999999998,3.27 -5.46,5.88 c-2.5,2.62 -3.8200000000000003,4.23 -7.01,7.19 c-3.2,2.9699999999999998 -5.11,4.47 -8.96,7.6400000000000015 c-3.85,3.16 -6.12,4.93 -10.27,8.18 c-4.15,3.25 -6.38,4.94 -10.5,8.07 c-4.12,3.14 -6.24,4.7 -10.11,7.61 c-3.87,2.92 -5.84,4.29 -9.24,6.97 c-3.41,2.67 -5.04,3.83 -7.78,6.4 c-2.74,2.5700000000000003 -4.18,3.6100000000000003 -5.91,6.45 c-1.7400000000000002,2.84 -2.3,4.54 -2.7600000000000002,7.75 c-0.47000000000000014,3.2 -0.52,5.09 0.43000000000000016,8.28 c0.9500000000000003,3.2 1.83,4.96 4.3,7.7 c2.47,2.74 4.35,3.74 8.06,5.99 c3.72,2.25 5.94,3.17 10.5,5.27 c4.57,2.1 7.07,3.08 12.31,5.24 c5.25,2.16 8.13,3.2800000000000002 13.93,5.57 c5.79,2.29 8.97,3.5300000000000002 15.06,5.87 c6.08,2.35 9.67,3.67 15.36,5.84 c5.7,2.17 8.64,3.6100000000000003 13.11,5.01 c4.47,1.4100000000000001 7.12,2.46 9.24,2.02 c2.12,-0.45 2.8,-2.64 1.3800000000000001,-4.24 s-4.17,-2.03 -8.48,-3.7600000000000002 c-4.3100000000000005,-1.7400000000000002 -7.35,-2.8200000000000003 -13.05,-4.91 c-5.7,-2.08 -9.38,-3.2 -15.43,-5.51 c-6.05,-2.3200000000000003 -9.18,-3.6 -14.83,-6.04 s-8.47,-3.71 -13.43,-6.17 c-4.96,-2.45 -7.36,-3.67 -11.36,-6.1 c-4.01,-2.43 -5.92,-3.73 -8.65,-6.05 c-2.74,-2.33 -3.5,-3.73 -5.04,-5.59 c-1.53,-1.87 -1.99,-2.38 -2.6500000000000004,-3.75 c-0.6500000000000004,-1.37 -0.8500000000000003,-1.73 -0.6100000000000003,-3.12 c0.24000000000000007,-1.3900000000000001 0.7400000000000003,-1.96 1.81,-3.83 c1.06,-1.87 1.57,-3.09 3.52,-5.52 c1.96,-2.43 3.3200000000000003,-3.84 6.27,-6.63 c2.96,-2.79 4.84,-4.3 8.51,-7.32 c3.68,-3.02 5.78,-4.62 9.870000000000001,-7.76 c4.09,-3.13 6.34,-4.8 10.58,-7.93 c4.25,-3.12 6.5600000000000005,-4.82 10.65,-7.68 c4.1,-2.87 6.15,-4.28 9.83,-6.65 c3.68,-2.38 5.48,-3.45 8.59,-5.22 c3.11,-1.77 4.94,-1.98 6.97,-3.62 c2.03,-1.6400000000000001 2.46,-2.83 3.17,-4.58 c0.7200000000000003,-1.75 0.93,-2.55 0.41000000000000014,-4.15 c-0.52,-1.6 -1.59,-2.95 -2.99,-3.87 m110.83,79.46 c1.08,-1.7000000000000002 1.02,-3.43 0.37000000000000016,-5.77 c-0.6500000000000004,-2.34 -1.53,-3.72 -3.6100000000000003,-5.94 c-2.07,-2.22 -3.66,-3.64 -6.75,-5.16 c-3.09,-1.53 -5.04,-1.86 -8.7,-2.45 c-3.6500000000000004,-0.5800000000000003 -5.63,-0.6100000000000003 -9.6,-0.48000000000000015 c-3.9699999999999998,0.14 -6.05,0.27 -10.24,1.1600000000000001 c-4.19,0.8900000000000003 -6.45,1.52 -10.7,3.27 c-4.25,1.75 -6.54,2.94 -10.55,5.5 c-4.01,2.56 -6,4.02 -9.51,7.29 c-3.51,3.2800000000000002 -5.3,5.23 -8.06,9.08 c-2.77,3.8600000000000003 -4.03,6.01 -5.76,10.19 c-1.73,4.19 -2.37,6.43 -2.89,10.76 c-0.53,4.32 -0.6100000000000003,6.74 0.26,10.870000000000001 c0.8800000000000003,4.13 1.84,6.26 4.1,9.79 c2.27,3.5300000000000002 3.8600000000000003,5.24 7.24,7.86 c3.38,2.62 5.44,3.7600000000000002 9.65,5.27 c4.2,1.51 6.79,1.92 11.37,2.2800000000000002 c4.59,0.37000000000000016 6.97,0.21000000000000008 11.57,-0.46 c4.6,-0.6700000000000006 6.99,-1.32 11.44,-2.9 c4.45,-1.58 6.8,-2.58 10.81,-5.01 c4.01,-2.44 5.85,-4.01 9.23,-7.17 c3.38,-3.16 5.06,-4.95 7.68,-8.620000000000001 c2.62,-3.66 3.6500000000000004,-5.74 5.41,-9.71 c1.77,-3.9699999999999998 2.34,-6.09 3.43,-10.13 c1.09,-4.04 1.49,-6.21 2.02,-10.07 c0.54,-3.87 1.4100000000000001,-6.35 0.6400000000000003,-9.23 c-0.78,-2.89 -2.3200000000000003,-4.23 -4.51,-5.2 c-2.19,-0.97 -4.2,-0.8700000000000003 -6.43,0.35000000000000014 c-2.23,1.21 -4.03,2.81 -4.73,5.73 c-0.6900000000000006,2.93 0.42000000000000015,5.1 1.27,8.88 c0.8400000000000003,3.79 1.73,5.96 2.95,10.06 c1.22,4.09 1.75,6.3 3.15,10.4 c1.4100000000000001,4.09 2.16,6.15 3.87,10.07 c1.7200000000000002,3.92 2.6900000000000004,5.95 4.71,9.52 c2.03,3.5700000000000003 3.17,5.61 5.42,8.31 c2.24,2.7 3.5700000000000003,3.96 5.82,5.18 c2.25,1.22 3.84,1.36 5.44,0.92 c1.6,-0.44000000000000017 2.33,-1.55 2.56,-3.12 c0.23,-1.57 -0.30000000000000016,-2.73 -1.4100000000000001,-4.71 c-1.12,-1.99 -2.18,-2.89 -4.15,-5.21 c-1.97,-2.3200000000000003 -3.6500000000000004,-3.49 -5.69,-6.4 c-2.05,-2.9 -2.98,-4.67 -4.55,-8.12 c-1.57,-3.46 -2.27,-5.38 -3.31,-9.15 c-1.04,-3.77 -1.51,-5.8900000000000015 -1.9,-9.72 c-0.4,-3.84 -0.11000000000000004,-6.08 -0.06000000000000003,-9.46 c0.04000000000000002,-3.38 0.9600000000000003,-5.12 0.27,-7.44 c-0.6900000000000006,-2.31 -2.04,-3.3 -3.72,-4.14 c-1.6800000000000006,-0.8300000000000003 -3.17,-0.92 -4.67,-0.03000000000000002 s-2.56,2.09 -2.8200000000000003,4.49 c-0.26,2.4 1.33,4.3 1.51,7.51 c0.19000000000000009,3.21 0.05000000000000003,5.09 -0.5800000000000003,8.55 c-0.6200000000000003,3.47 -1.15,5.36 -2.52,8.76 c-1.37,3.41 -2.16,5.14 -4.3100000000000005,8.28 c-2.15,3.15 -3.6,4.73 -6.45,7.45 c-2.85,2.72 -4.41,4.09 -7.83,6.17 c-3.41,2.08 -5.44,2.93 -9.26,4.24 c-3.83,1.31 -5.97,1.84 -9.870000000000001,2.3200000000000003 c-3.89,0.49000000000000016 -5.8900000000000015,0.51 -9.620000000000001,0.1 c-3.73,-0.4 -5.8100000000000005,-0.8700000000000003 -9.02,-2.11 c-3.21,-1.23 -4.61,-2.12 -7.04,-4.06 c-2.43,-1.9500000000000002 -3.48,-3.19 -5.1,-5.66 c-1.6300000000000003,-2.46 -2.33,-3.75 -3.03,-6.67 c-0.7100000000000003,-2.91 -0.79,-4.62 -0.49000000000000016,-7.92 c0.30000000000000016,-3.3 0.6600000000000005,-5.14 1.97,-8.57 c1.32,-3.43 2.29,-5.3 4.59,-8.59 s3.8600000000000003,-5.04 6.92,-7.85 c3.05,-2.8 4.83,-4.06 8.37,-6.16 c3.54,-2.11 5.62,-3.08 9.31,-4.36 c3.7,-1.28 5.6400000000000015,-1.6400000000000001 9.16,-2.06 c3.51,-0.42000000000000015 5.3,-0.3200000000000002 8.41,-0.03000000000000002 c3.11,0.29000000000000015 4.77,0.6800000000000006 7.15,1.49 c2.38,0.8200000000000003 3.06,1.4 4.74,2.58 c1.6800000000000006,1.19 2.23,2.1 3.66,3.33 c1.4300000000000002,1.23 1.8900000000000001,1.92 3.48,2.83 c1.59,0.91 2.56,1.94 4.46,1.7400000000000002 c1.9,-0.21000000000000008 3.95,-1.04 5.03,-2.74 m89.89,-18 c-0.6600000000000005,-1.9100000000000001 -1.9500000000000002,-3.12 -4.41,-4.22 c-2.45,-1.1 -4.4,-1.21 -7.86,-1.29 c-3.46,-0.08000000000000004 -5.71,0.38000000000000017 -9.43,0.9 c-3.73,0.52 -5.63,0.8800000000000003 -9.19,1.6900000000000006 c-3.56,0.8200000000000003 -5.6,0.8600000000000003 -8.6,2.37 c-3.01,1.51 -4.53,2.6900000000000004 -6.41,5.18 c-1.8800000000000003,2.49 -2.68,4.21 -2.99,7.28 c-0.31000000000000016,3.06 -0.18000000000000008,5.2 1.42,8.03 c1.6,2.8200000000000003 3.16,4.05 6.5600000000000005,6.09 c3.41,2.04 5.8100000000000005,2.46 10.46,4.12 c4.65,1.6500000000000006 7.4,2.42 12.81,4.15 c5.4,1.7400000000000002 8.54,2.6100000000000003 14.22,4.52 c5.67,1.9 8.81,2.91 14.14,5.01 c5.33,2.1 8.05,3.25 12.52,5.49 c4.47,2.23 6.74,3.47 9.83,5.68 c3.09,2.21 3.98,3.68 5.62,5.36 c1.6400000000000001,1.6800000000000006 2.17,2.12 2.59,3.03 c0.43000000000000016,0.91 0.3300000000000002,0.8900000000000003 -0.45,1.52 c-0.79,0.6300000000000003 -1.57,0.49000000000000016 -3.48,1.6400000000000001 c-1.9100000000000001,1.1400000000000001 -2.89,2.5300000000000002 -6.09,4.08 c-3.19,1.55 -5.46,2.45 -9.89,3.66 c-4.42,1.21 -7.19,1.77 -12.23,2.4 c-5.05,0.6300000000000003 -7.85,0.77 -12.99,0.7500000000000003 c-5.14,-0.02000000000000001 -7.99,-0.15000000000000008 -12.7,-0.8500000000000003 c-4.72,-0.6900000000000006 -7.16,-1.29 -10.86,-2.63 c-3.7,-1.34 -5.39,-2.37 -7.63,-4.07 c-2.24,-1.71 -2.77,-2.7 -3.55,-4.45 c-0.78,-1.7600000000000002 -0.3400000000000003,-2.51 -0.3400000000000003,-4.3100000000000005 c0,-1.8 0.51,-2.8200000000000003 0.3200000000000002,-4.68 c-0.18000000000000008,-1.86 -0.07,-3.34 -1.23,-4.63 s-2.72,-2.25 -4.5600000000000005,-1.84 c-1.85,0.42000000000000015 -3.46,1.54 -4.67,3.91 c-1.22,2.37 -1.71,4.5600000000000005 -1.4100000000000001,7.93 c0.31000000000000016,3.37 0.8500000000000003,5.8 2.94,8.9 c2.09,3.11 3.98,4.47 7.52,6.62 c3.55,2.16 5.69,2.8600000000000003 10.19,4.15 c4.51,1.29 7.15,1.6800000000000006 12.33,2.29 c5.18,0.6100000000000003 8.12,0.6800000000000006 13.59,0.7500000000000003 c5.48,0.07 8.36,-0.010000000000000005 13.77,-0.4 c5.42,-0.3900000000000002 8.3,-0.7400000000000003 13.29,-1.55 c5,-0.81 7.49,-1.25 11.69,-2.49 c4.19,-1.24 6.39,-1.54 9.28,-3.71 c2.89,-2.16 4.05,-4.02 5.18,-7.1 c1.12,-3.09 1.19,-5.17 0.45,-8.31 c-0.7300000000000003,-3.15 -1.62,-4.86 -4.12,-7.41 s-4.49,-3.23 -8.39,-5.33 c-3.9,-2.1 -6.27,-3.07 -11.11,-5.15 c-4.84,-2.09 -7.61,-3.16 -13.08,-5.26 c-5.47,-2.09 -8.65,-3.13 -14.29,-5.21 c-5.63,-2.08 -8.76,-3.07 -13.89,-5.19 c-5.12,-2.11 -7.78,-3.23 -11.72,-5.39 c-3.95,-2.15 -5.6,-3.68 -8,-5.38 c-2.39,-1.7000000000000002 -2.92,-2.36 -3.9699999999999998,-3.12 c-1.05,-0.7500000000000003 -1.34,-0.37000000000000016 -1.28,-0.6500000000000004 c0.05000000000000003,-0.29000000000000015 0.43000000000000016,-0.30000000000000016 1.56,-0.7600000000000003 c1.12,-0.45 2.01,-0.7600000000000003 4.06,-1.52 c2.05,-0.77 3.4,-1.6300000000000003 6.19,-2.29 c2.79,-0.6600000000000005 4.61,-0.8500000000000003 7.76,-1.01 c3.16,-0.1600000000000001 5.11,0.15000000000000008 8,0.2 c2.9,0.05000000000000003 4.2,0.5 6.48,0.06000000000000003 c2.2800000000000002,-0.44000000000000017 3.73,-0.7500000000000003 4.94,-2.26 c1.21,-1.51 1.77,-3.4 1.11,-5.3 m64.77,18.81 c-1.45,1.01 -1.9500000000000002,2.09 -2.3200000000000003,4.24 c-0.36000000000000015,2.15 -0.17,3.36 0.49000000000000016,6.53 c0.6600000000000005,3.17 1.7400000000000002,5.19 2.81,9.33 c1.08,4.13 1.62,6.49 2.5700000000000003,11.35 c0.9400000000000003,4.85 1.3900000000000001,7.48 2.16,12.92 c0.77,5.45 1.03,8.46 1.71,14.31 c0.6800000000000006,5.85 1.08,9.01 1.7000000000000002,14.94 c0.6200000000000003,5.92 0.92,8.97 1.4,14.69 c0.48000000000000015,5.71 0.7300000000000003,8.65 1.01,13.88 c0.27,5.24 0.45,7.91 0.38000000000000017,12.29 c-0.07,4.39 -0.79,6.57 -0.7200000000000003,9.65 c0.07,3.07 0.48000000000000015,4.07 1.07,5.72 c0.5800000000000003,1.6500000000000006 0.8800000000000003,2 1.87,2.52 c0.98,0.53 2.15,0.31000000000000016 3.04,0.1 c0.9,-0.21000000000000008 2,-1.13 1.44,-1.15 c-0.56,-0.02000000000000001 -3.7600000000000002,0.7000000000000003 -4.23,1.04 c-0.47000000000000014,0.35000000000000014 0.9,0.77 1.8900000000000001,0.7000000000000003 c0.98,-0.07 2.15,-0.29000000000000015 3.04,-1.04 c0.9,-0.7500000000000003 1.06,-1.05 1.44,-2.71 c0.37000000000000016,-1.6700000000000006 0.6400000000000003,-2.56 0.44000000000000017,-5.62 s-0.8500000000000003,-5.26 -1.44,-9.68 c-0.5900000000000003,-4.41 -0.92,-7.12 -1.51,-12.37 c-0.6000000000000003,-5.26 -0.8800000000000003,-8.19 -1.46,-13.92 c-0.5900000000000003,-5.73 -0.8900000000000003,-8.8 -1.48,-14.74 c-0.6000000000000003,-5.94 -0.9600000000000003,-9.09 -1.5,-14.97 c-0.54,-5.88 -0.7500000000000003,-8.89 -1.22,-14.42 c-0.47000000000000014,-5.52 -0.7600000000000003,-8.2 -1.13,-13.19 c-0.37000000000000016,-4.99 -0.51,-7.4 -0.7000000000000003,-11.76 c-0.18000000000000008,-4.35 0.22000000000000008,-6.74 -0.24000000000000007,-10.01 c-0.46,-3.2800000000000002 -0.9500000000000003,-4.49 -2.06,-6.37 s-1.8,-2.6 -3.49,-3.05 c-1.6900000000000006,-0.45 -3.5,-0.21000000000000008 -4.96,0.79 " style="" id="svg_1" class="" opacity="1" fill="#ffffff" fill-opacity="1" stroke="#ffffff" stroke-opacity="1" filter=""/><path d="M369.99028877258297,109.10587202072145 c1.98,-0.05000000000000002 3.15,-1.29 5.14,-3.09 c1.99,-1.79 2.3200000000000003,-3.5 4.8,-5.9 c2.49,-2.39 4.09,-4.11 7.6400000000000015,-6.07 s5.75,-2.63 10.12,-3.73 c4.37,-1.1 7,-1.52 11.71,-1.77 c4.71,-0.25 7.29,-0.13 11.86,0.54 c4.57,0.6600000000000003 6.95,1.25 10.98,2.81 c4.04,1.55 6.04,2.67 9.2,4.97 c3.16,2.3 4.5600000000000005,3.8200000000000003 6.59,6.54 c2.03,2.71 2.74,4.18 3.56,7.03 c0.8200000000000002,2.85 0.8800000000000002,4.23 0.56,7.23 c-0.3200000000000001,2.99 -0.7300000000000002,4.65 -2.17,7.75 c-1.45,3.1 -2.45,4.8 -5.05,7.75 c-2.6100000000000003,2.95 -4.39,4.45 -7.98,7 c-3.59,2.56 -5.69,3.79 -9.97,5.77 c-4.29,1.98 -6.8100000000000005,2.85 -11.46,4.13 c-4.65,1.28 -7.3100000000000005,1.77 -11.79,2.2800000000000002 c-4.49,0.52 -6.79,0.6100000000000002 -10.64,0.3000000000000001 c-3.85,-0.3000000000000001 -5.66,-1.27 -8.63,-1.81 c-2.9699999999999998,-0.55 -4.14,-0.8900000000000002 -6.23,-0.9 c-2.09,-0.020000000000000007 -3.09,-0.030000000000000013 -4.24,0.8200000000000002 c-1.15,0.8400000000000002 -1.83,1.92 -1.52,3.42 c0.3200000000000001,1.49 1.04,2.7600000000000002 3.1,4.07 c2.06,1.31 3.73,1.92 7.2,2.48 c3.48,0.56 5.78,0.4700000000000001 10.18,0.3100000000000001 c4.4,-0.17 6.9,-0.3600000000000001 11.82,-1.13 c4.91,-0.78 7.68,-1.32 12.74,-2.75 c5.05,-1.44 7.76,-2.3200000000000003 12.53,-4.43 c4.77,-2.1 7.12,-3.31 11.33,-6.09 c4.21,-2.77 6.41,-4.3100000000000005 9.73,-7.79 c3.31,-3.47 4.84,-5.53 6.84,-9.59 c2.01,-4.05 2.77,-6.39 3.2,-10.67 c0.4200000000000001,-4.28 0.22000000000000006,-6.66 -1.07,-10.74 c-1.29,-4.07 -2.56,-6.15 -5.38,-9.64 c-2.83,-3.5 -4.76,-5.16 -8.73,-7.83 c-3.96,-2.67 -6.37,-3.8 -11.1,-5.51 c-4.73,-1.71 -7.39,-2.31 -12.54,-3.05 c-5.16,-0.7500000000000002 -7.96,-0.8400000000000002 -13.23,-0.6700000000000004 c-5.26,0.16000000000000006 -8.01,0.52 -13.09,1.5 c-5.07,0.97 -7.76,1.45 -12.29,3.38 c-4.52,1.9300000000000002 -6.87,3.64 -10.35,6.25 c-3.48,2.6100000000000003 -5.45,4.01 -7.07,6.8100000000000005 c-1.61,2.8 -1.7600000000000002,5.18 -1.02,7.19 c0.7400000000000002,2 2.75,2.88 4.72,2.83 " style="" id="svg_2" class="" opacity="1" fill="#ffffff" fill-opacity="1" stroke="#ffffff" stroke-opacity="1" filter=""/><path d="M539.380288772583,103.40587202072146 c0.6900000000000004,-1.85 0.3100000000000001,-3.41 -0.7500000000000002,-5.47 c-1.05,-2.06 -2.15,-3.13 -4.52,-4.82 c-2.38,-1.6900000000000004 -4.12,-2.75 -7.36,-3.63 c-3.25,-0.8800000000000002 -5.19,-0.81 -8.86,-0.7600000000000002 c-3.66,0.040000000000000015 -5.54,0.3000000000000001 -9.46,0.98 c-3.91,0.6800000000000004 -6.03,1.11 -10.1,2.42 c-4.07,1.3 -6.19,2.15 -10.23,4.11 c-4.04,1.9500000000000002 -6.26,3.13 -9.98,5.66 c-3.72,2.52 -5.49,3.9 -8.6,6.96 c-3.11,3.05 -4.62,4.75 -6.93,8.3 c-2.31,3.55 -3.48,5.53 -4.62,9.44 c-1.15,3.9 -1.42,6.1 -1.1,10.06 c0.3200000000000001,3.9699999999999998 0.8900000000000002,6.17 2.6900000000000004,9.76 c1.8,3.58 3.22,5.41 6.3,8.17 c3.08,2.77 5.07,3.94 9.11,5.65 c4.05,1.7200000000000002 6.48,2.29 11.13,2.91 c4.65,0.6200000000000002 7.29,0.6100000000000002 12.13,0.2 c4.85,-0.4200000000000001 7.36,-0.9500000000000002 12.11,-2.2800000000000002 c4.75,-1.32 7.28,-2.25 11.64,-4.34 c4.35,-2.09 6.45,-3.4 10.14,-6.11 c3.6900000000000004,-2.71 5.42,-4.23 8.32,-7.42 c2.9,-3.2 4.21,-4.97 6.17,-8.55 c1.96,-3.58 2.62,-5.63 3.63,-9.37 c1.01,-3.74 1.13,-5.66 1.4100000000000001,-9.31 c0.28,-3.6500000000000004 0.6400000000000002,-5.73 -0.020000000000000007,-8.95 c-0.6700000000000004,-3.21 -1.37,-5.26 -3.3,-7.13 c-1.92,-1.8800000000000003 -3.87,-2.34 -6.33,-2.23 c-2.45,0.11000000000000003 -4.11,0.93 -5.94,2.79 c-1.83,1.85 -3.04,3.48 -3.21,6.48 c-0.16000000000000006,3 1.18,4.93 2.37,8.53 c1.19,3.6 2.11,5.58 3.6,9.47 c1.49,3.88 2.14,5.97 3.8600000000000003,9.95 c1.7200000000000002,3.98 2.71,6.07 4.74,9.93 c2.03,3.87 3.01,5.86 5.41,9.39 c2.4,3.5300000000000002 3.8200000000000003,5.26 6.6,8.28 c2.7800000000000002,3.02 4.28,4.48 7.32,6.83 c3.03,2.36 4.83,3.8200000000000003 7.84,4.93 c3.02,1.1 4.87,0.93 7.22,0.6000000000000002 c2.35,-0.3200000000000001 3.5700000000000003,-0.97 4.55,-2.22 c0.98,-1.24 0.8900000000000002,-2.63 0.3500000000000001,-4 c-0.54,-1.3800000000000001 -1.52,-1.78 -3.05,-2.89 c-1.53,-1.12 -2.37,-1.6900000000000004 -4.62,-2.68 c-2.24,-0.98 -4,-0.8300000000000002 -6.59,-2.25 c-2.6,-1.4100000000000001 -3.91,-2.49 -6.37,-4.83 c-2.47,-2.33 -3.7800000000000002,-3.81 -5.95,-6.85 c-2.17,-3.04 -3.12,-4.83 -4.91,-8.35 c-1.79,-3.52 -2.73,-5.5 -4.04,-9.24 c-1.32,-3.73 -1.83,-5.71 -2.54,-9.44 c-0.7000000000000002,-3.73 -0.7600000000000002,-5.96 -0.98,-9.21 c-0.23,-3.26 0.4,-4.92 -0.16000000000000006,-7.07 c-0.56,-2.15 -1.35,-2.79 -2.6500000000000004,-3.6900000000000004 c-1.31,-0.91 -2.55,-1.27 -3.88,-0.8400000000000002 c-1.33,0.4400000000000001 -2.39,1.33 -2.77,3.01 c-0.3800000000000001,1.6900000000000004 0.3600000000000001,3.07 0.8800000000000002,5.4 c0.51,2.34 1.42,3.62 1.71,6.29 c0.2900000000000001,2.68 0.21000000000000005,4.21 -0.28,7.11 c-0.4800000000000001,2.89 -0.8400000000000002,4.48 -2.16,7.37 c-1.32,2.89 -2.2,4.35 -4.44,7.07 c-2.23,2.72 -3.66,4.12 -6.74,6.53 s-4.8900000000000015,3.64 -8.67,5.51 c-3.79,1.86 -6.09,2.71 -10.26,3.83 c-4.17,1.11 -6.42,1.51 -10.58,1.73 c-4.16,0.22000000000000006 -6.45,0.05000000000000002 -10.22,-0.6400000000000002 c-3.77,-0.6800000000000004 -5.67,-1.34 -8.63,-2.7800000000000002 c-2.96,-1.44 -4.15,-2.44 -6.18,-4.42 c-2.02,-1.97 -2.7800000000000002,-3.13 -3.93,-5.44 c-1.1400000000000001,-2.31 -1.53,-3.58 -1.81,-6.11 c-0.28,-2.5300000000000002 -0.28,-3.8200000000000003 0.4200000000000001,-6.5600000000000005 c0.6900000000000004,-2.73 1.37,-4.3100000000000005 3.06,-7.13 c1.6900000000000004,-2.81 2.87,-4.37 5.39,-6.95 c2.5300000000000002,-2.58 4.03,-3.8 7.25,-5.94 c3.22,-2.14 5.27,-3.2 8.85,-4.76 c3.59,-1.56 5.51,-2.21 9.07,-3.06 c3.56,-0.8400000000000002 5.47,-1.02 8.71,-1.1600000000000001 c3.24,-0.15000000000000005 4.93,0 7.49,0.45 c2.55,0.4400000000000001 3.39,0.92 5.29,1.7600000000000002 c1.9100000000000001,0.8500000000000002 2.59,1.6 4.22,2.46 c1.6400000000000001,0.8700000000000002 2.26,1.4 3.96,1.86 c1.7000000000000002,0.4700000000000001 2.8,1.13 4.55,0.4700000000000001 c1.7600000000000002,-0.6600000000000003 3.5300000000000002,-1.92 4.23,-3.77 m65.41,3.58 c-1.6500000000000004,0.8200000000000002 -2.33,1.87 -3.11,4.05 c-0.78,2.17 -1.02,3.71 -0.78,6.8100000000000005 c0.24000000000000005,3.1 1.18,5.11 1.97,8.71 c0.8,3.6 1.23,5.55 2.01,9.28 c0.77,3.74 1.27,5.72 1.86,9.38 c0.5800000000000002,3.66 0.8,5.6 1.07,8.93 c0.28,3.34 -0.4300000000000001,5.26 0.2900000000000001,7.76 c0.7300000000000002,2.51 1.6,3.79 3.33,4.77 c1.73,0.98 3.46,1 5.33,0.15000000000000005 c1.8800000000000003,-0.8600000000000002 3.36,-2.11 4.05,-4.42 s0.3300000000000001,-4.06 -0.5900000000000002,-7.13 c-0.92,-3.08 -2.55,-4.83 -3.99,-8.23 c-1.45,-3.4 -2.13,-5.28 -3.25,-8.78 c-1.12,-3.5 -1.61,-5.3 -2.36,-8.74 c-0.7400000000000002,-3.43 -1.09,-5.21 -1.37,-8.43 c-0.28,-3.21 -0.27,-4.79 -0.040000000000000015,-7.6400000000000015 c0.22000000000000006,-2.8600000000000003 0.4300000000000001,-4.22 1.15,-6.63 c0.7300000000000002,-2.41 1.17,-3.4 2.47,-5.42 c1.3,-2.03 1.9300000000000002,-2.95 4.02,-4.71 c2.1,-1.7600000000000002 3.38,-2.66 6.46,-4.09 c3.09,-1.42 5.01,-2.08 8.98,-3.02 c3.98,-0.9400000000000002 6.3,-1.37 10.91,-1.6700000000000004 c4.6,-0.3000000000000001 7.18,-0.2 12.1,0.17 c4.92,0.3800000000000001 7.55,0.7300000000000002 12.49,1.71 c4.94,0.97 7.8,1.9500000000000002 12.23,3.19 c4.43,1.23 6.5,2.3200000000000003 9.92,2.98 c3.42,0.6600000000000003 5.48,1.09 7.18,0.3200000000000001 c1.71,-0.77 2.31,-2.54 1.35,-4.17 c-0.97,-1.6300000000000003 -2.88,-2.62 -6.18,-3.98 c-3.29,-1.36 -5.65,-1.7200000000000002 -10.29,-2.8200000000000003 c-4.63,-1.11 -7.66,-1.81 -12.870000000000001,-2.72 c-5.22,-0.9 -7.95,-1.31 -13.2,-1.82 c-5.24,-0.5 -7.98,-0.7600000000000002 -13.04,-0.6900000000000004 c-5.05,0.07 -7.61,0.3000000000000001 -12.24,1.04 c-4.6400000000000015,0.7400000000000002 -6.91,1.17 -10.93,2.6500000000000004 c-4.03,1.47 -6.03,2.4 -9.21,4.72 c-3.17,2.3200000000000003 -4.58,3.8200000000000003 -6.69,6.87 c-2.1,3.06 -2.83,4.91 -3.84,8.41 c-1.01,3.5 -1.08,5.42 -1.22,9.09 c-0.14,3.68 0.06000000000000002,5.55 0.51,9.28 c0.45,3.74 0.9600000000000002,5.67 1.7400000000000002,9.42 c0.77,3.74 1.32,5.57 2.11,9.3 c0.79,3.73 1.3,5.7 1.83,9.34 c0.53,3.64 0.14,5.85 0.8200000000000002,8.86 c0.6800000000000004,3.01 0.97,4.51 2.58,6.21 c1.62,1.7000000000000002 3.38,2.24 5.49,2.2800000000000002 c2.1,0.05000000000000002 3.6900000000000004,-0.55 5.03,-2.06 c1.33,-1.51 1.7200000000000002,-2.89 1.6600000000000001,-5.5 c-0.07,-2.6100000000000003 -1.19,-4.25 -1.98,-7.55 c-0.78,-3.31 -1.24,-5.32 -1.9300000000000002,-8.97 c-0.7000000000000002,-3.64 -1.13,-5.6 -1.54,-9.27 c-0.4200000000000001,-3.67 -0.45,-5.57 -0.53,-9.09 c-0.08000000000000003,-3.51 0.4200000000000001,-5.5600000000000005 0.14,-8.47 c-0.2900000000000001,-2.91 -0.6200000000000002,-4.14 -1.57,-6.08 c-0.9500000000000002,-1.94 -1.51,-2.91 -3.17,-3.62 c-1.6700000000000004,-0.7200000000000002 -3.5,-0.78 -5.16,0.040000000000000015 m245.61,-56.44 c-1.6300000000000003,0.7100000000000002 -2.34,1.57 -3.13,3.68 c-0.79,2.11 -0.7600000000000002,3.46 -0.81,6.88 c-0.06000000000000002,3.41 0.45,5.62 0.52,10.19 c0.07,4.58 -0.010000000000000004,7.26 -0.16000000000000006,12.67 c-0.16000000000000006,5.41 -0.3600000000000001,8.34 -0.6200000000000002,14.37 c-0.25,6.03 -0.4300000000000001,9.38 -0.6500000000000002,15.78 c-0.21000000000000005,6.39 -0.24000000000000005,9.75 -0.4200000000000001,16.19 c-0.17,6.44 -0.27,9.83 -0.4700000000000001,16.03 c-0.19000000000000006,6.2 -0.3900000000000001,9.33 -0.51,14.96 c-0.13,5.6400000000000015 -0.2900000000000001,8.49 -0.11000000000000003,13.22 c0.17,4.72 -0.23,8.35 1,10.4 c1.22,2.05 4.02,1.9500000000000002 5.12,-0.15000000000000005 c1.11,-2.1 0.3400000000000002,-5.66 0.3900000000000001,-10.34 c0.05000000000000002,-4.68 -0.11000000000000003,-7.47 -0.12000000000000002,-13.06 c-0.010000000000000004,-5.59 -0.020000000000000007,-8.72 0.07,-14.9 c0.09000000000000004,-6.17 0.18000000000000005,-9.57 0.3800000000000001,-15.99 c0.19000000000000006,-6.42 0.24000000000000005,-9.76 0.5900000000000002,-16.1 c0.3500000000000001,-6.34 0.6000000000000002,-9.65 1.15,-15.61 c0.54,-5.96 0.8700000000000002,-8.86 1.58,-14.21 c0.7100000000000002,-5.34 1.17,-8 1.97,-12.52 s1.6,-6.65 2.03,-10.09 c0.4300000000000001,-3.45 0.6900000000000004,-4.8900000000000015 0.13,-7.15 c-0.56,-2.25 -1.35,-3.2800000000000002 -2.94,-4.13 c-1.58,-0.8500000000000002 -3.37,-0.8300000000000002 -4.99,-0.12000000000000002 " style="" id="svg_3" class="" opacity="1" fill="#ffffff" fill-opacity="1" stroke="#ffffff" stroke-opacity="1" filter=""/><path d="M851.3802887725831,39.06587202072143 c-1.05,1.1 -1.58,1.6300000000000003 -1.73,3.45 c-0.15000000000000005,1.82 -0.3000000000000001,3.15 0.99,5.6400000000000015 c1.3,2.5 3.24,3.39 5.51,6.83 c2.27,3.44 3.47,5.76 5.85,10.39 c2.39,4.63 3.5700000000000003,7.29 6.08,12.76 c2.5,5.48 3.79,8.54 6.46,14.620000000000001 s3.94,9.42 6.8900000000000015,15.79 c2.94,6.38 4.63,9.79 7.83,16.09 c3.2,6.3100000000000005 4.93,9.5 8.19,15.44 c3.26,5.94 4.91,8.89 8.11,14.27 c3.19,5.38 4.85,8 7.88,12.63 c3.03,4.62 4.49,6.71 7.27,10.48 c2.77,3.7600000000000002 4.02,5.53 6.6,8.35 c2.59,2.81 3.6500000000000004,4.29 6.3100000000000005,5.73 c2.66,1.44 4.2,1.62 6.98,1.47 c2.7800000000000002,-0.16000000000000006 4.47,-0.5700000000000002 6.9,-2.24 c2.43,-1.6600000000000001 4.11,-3 5.25,-6.1 c1.15,-3.09 0.52,-5.21 0.4700000000000001,-9.37 c-0.040000000000000015,-4.16 -0.3900000000000001,-6.44 -0.6900000000000004,-11.42 c-0.3000000000000001,-4.98 -0.45,-7.77 -0.8,-13.48 c-0.3500000000000001,-5.71 -0.53,-8.82 -0.97,-15.08 c-0.4300000000000001,-6.26 -0.7100000000000002,-9.58 -1.2,-16.22 c-0.4900000000000001,-6.65 -0.7100000000000002,-10.23 -1.24,-17.02 c-0.54,-6.79 -0.81,-10.27 -1.42,-16.94 c-0.6100000000000002,-6.66 -0.8900000000000002,-10.05 -1.6400000000000001,-16.36 c-0.7400000000000002,-6.32 -1.25,-9.43 -2.08,-15.2 c-0.8400000000000002,-5.77 -1.26,-8.58 -2.1,-13.66 c-0.8400000000000002,-5.08 -1.3800000000000001,-7.55 -2.12,-11.75 c-0.7400000000000002,-4.19 -0.54,-6.44 -1.58,-9.21 c-1.04,-2.77 -2.2800000000000002,-3.37 -3.6,-4.6400000000000015 c-1.32,-1.26 -1.84,-1.6 -2.98,-1.71 c-1.1400000000000001,-0.1 -2,0.3300000000000001 -2.72,1.2 c-0.7100000000000002,0.8600000000000002 -0.7200000000000002,1.45 -0.8500000000000002,3.14 c-0.12000000000000002,1.7000000000000002 -0.56,2.67 0.23,5.33 c0.78,2.67 2.3,4.19 3.71,7.99 c1.4,3.8 2.11,6.16 3.33,11.02 c1.22,4.85 1.7200000000000002,7.62 2.7600000000000002,13.26 c1.04,5.6400000000000015 1.6,8.71 2.45,14.93 c0.8500000000000002,6.22 1.1600000000000001,9.57 1.8,16.17 c0.6300000000000002,6.6 0.9,10.07 1.3900000000000001,16.83 c0.4800000000000001,6.76 0.6800000000000004,10.35 1.03,16.97 c0.3600000000000001,6.63 0.5700000000000002,9.95 0.7400000000000002,16.16 c0.17,6.22 0.22000000000000006,9.31 0.11000000000000003,14.94 c-0.1,5.63 -0.2,8.45 -0.6400000000000002,13.21 c-0.4400000000000001,4.76 -0.81,7.1 -1.54,10.58 c-0.7400000000000002,3.48 -1.83,4.79 -2.15,6.83 c-0.3200000000000001,2.04 0.45,2.6100000000000003 0.55,3.37 c0.1,0.7600000000000002 0.4,0.7200000000000002 -0.030000000000000013,0.4200000000000001 c-0.4200000000000001,-0.3000000000000001 -0.6000000000000002,-0.81 -2.1,-1.9300000000000002 c-1.5,-1.12 -2.88,-1.6500000000000004 -5.4,-3.6900000000000004 c-2.51,-2.04 -4.19,-3.3200000000000003 -7.17,-6.51 c-2.98,-3.19 -4.55,-5.14 -7.73,-9.43 c-3.19,-4.29 -4.92,-6.83 -8.21,-12.01 c-3.29,-5.18 -4.97,-8.07 -8.26,-13.9 c-3.2800000000000002,-5.82 -5.01,-8.99 -8.16,-15.22 c-3.16,-6.23 -4.79,-9.59 -7.61,-15.93 c-2.8200000000000003,-6.35 -4.03,-9.67 -6.48,-15.81 c-2.44,-6.13 -3.63,-9.25 -5.76,-14.89 c-2.13,-5.65 -3.18,-8.34 -4.88,-13.32 c-1.7000000000000002,-4.99 -2.47,-7.46 -3.63,-11.59 c-1.15,-4.14 -0.79,-6.43 -2.14,-9.11 c-1.35,-2.68 -2.89,-3.38 -4.59,-4.3100000000000005 c-1.7000000000000002,-0.92 -2.42,-0.6500000000000002 -3.91,-0.3000000000000001 c-1.49,0.3500000000000001 -2.5,0.9500000000000002 -3.56,2.06 " style="" id="svg_4" class="" opacity="1" fill="#ffffff" fill-opacity="1" stroke="#ffffff" stroke-opacity="1" filter=""/><path d="M1031.650288772583,114.70587202072142 c0.91,-1.7400000000000002 0.7600000000000002,-3.25 -0.020000000000000007,-5.49 c-0.77,-2.25 -1.6500000000000004,-3.67 -3.85,-5.73 c-2.2,-2.07 -3.99,-3.3 -7.15,-4.61 c-3.16,-1.3 -5.03,-1.47 -8.65,-1.92 c-3.63,-0.46 -5.51,-0.53 -9.47,-0.3400000000000002 c-3.95,0.18000000000000005 -6.12,0.3400000000000002 -10.31,1.28 s-6.43,1.6700000000000004 -10.65,3.41 c-4.22,1.75 -6.44,2.83 -10.45,5.32 c-4.01,2.48 -6.02,3.92 -9.58,7.11 c-3.5700000000000003,3.19 -5.39,4.98 -8.22,8.82 c-2.83,3.85 -4.24,6.07 -5.94,10.41 c-1.71,4.34 -2.3200000000000003,6.8 -2.58,11.28 c-0.26,4.48 -0.09000000000000004,6.88 1.27,11.11 c1.35,4.22 2.48,6.44 5.48,10.03 c3,3.6 5.17,5.3 9.53,7.94 c4.35,2.6500000000000004 6.93,3.66 12.24,5.29 c5.32,1.6400000000000001 8.4,2.21 14.35,2.88 c5.95,0.6700000000000004 9.3,0.7500000000000002 15.4,0.4900000000000001 s9.27,-0.7200000000000002 15.09,-1.79 c5.83,-1.06 8.870000000000001,-1.77 14.04,-3.54 s7.57,-2.81 11.82,-5.29 c4.24,-2.49 6.28,-3.94 9.4,-7.14 c3.12,-3.2 4.49,-5.06 6.2,-8.86 c1.7000000000000002,-3.79 2.16,-6.05 2.34,-10.11 c0.17,-4.07 -0.22000000000000006,-6.3100000000000005 -1.47,-10.21 c-1.24,-3.91 -2.37,-5.8900000000000015 -4.74,-9.32 c-2.37,-3.42 -4.11,-5.02 -7.13,-7.82 c-3.02,-2.8 -4.8100000000000005,-4.07 -7.96,-6.17 c-3.15,-2.09 -4.98,-3.47 -7.8,-4.3 c-2.83,-0.8200000000000002 -4.35,-0.25 -6.33,0.17 c-1.97,0.4300000000000001 -2.7600000000000002,0.9 -3.54,1.96 c-0.79,1.05 -0.7300000000000002,2.12 -0.4,3.31 c0.3400000000000002,1.19 0.91,1.45 2.07,2.62 c1.1600000000000001,1.17 1.6300000000000003,2.09 3.73,3.22 c2.1,1.13 4.05,1.07 6.77,2.41 c2.73,1.35 4.33,2.25 6.83,4.3100000000000005 c2.5,2.06 3.85,3.46 5.68,5.99 c1.83,2.54 2.54,3.9699999999999998 3.49,6.7 c0.9400000000000002,2.73 1.21,4.17 1.25,6.94 c0.040000000000000015,2.77 -0.06000000000000002,4.16 -1.05,6.9 s-1.6500000000000004,4.16 -3.89,6.8 c-2.23,2.64 -3.7800000000000002,4.09 -7.29,6.42 c-3.5,2.3200000000000003 -5.59,3.44 -10.23,5.2 c-4.6400000000000015,1.75 -7.54,2.51 -12.97,3.5700000000000003 c-5.42,1.05 -8.45,1.49 -14.15,1.6900000000000004 c-5.7,0.2 -8.88,0.05000000000000002 -14.34,-0.7100000000000002 c-5.45,-0.7600000000000002 -8.29,-1.45 -12.94,-3.09 s-6.8,-2.75 -10.3,-5.09 c-3.51,-2.34 -5.04,-3.83 -7.24,-6.62 s-2.83,-4.26 -3.77,-7.34 c-0.93,-3.08 -1.08,-4.7 -0.9,-8.06 c0.18000000000000005,-3.37 0.51,-5.3 1.82,-8.77 c1.31,-3.47 2.37,-5.37 4.72,-8.6 c2.36,-3.23 3.94,-4.83 7.04,-7.55 c3.11,-2.71 4.94,-3.98 8.5,-6.03 c3.56,-2.06 5.6,-2.94 9.31,-4.24 c3.71,-1.29 5.68,-1.7400000000000002 9.22,-2.22 c3.55,-0.4900000000000001 5.38,-0.4400000000000001 8.5,-0.19000000000000006 s4.69,0.6000000000000002 7.11,1.42 c2.42,0.81 3.17,1.5 5,2.66 c1.82,1.15 2.54,2 4.13,3.11 c1.59,1.12 2.14,1.7600000000000002 3.8200000000000003,2.47 c1.6800000000000004,0.7200000000000002 2.74,1.52 4.57,1.1 c1.83,-0.4200000000000001 3.67,-1.46 4.59,-3.19 " style="" id="svg_5" class="" opacity="1" fill="#ffffff" fill-opacity="1" stroke="#ffffff" stroke-opacity="1" filter=""/><path d="M1134.730288772583,125.75587202072143 c0.97,-1.77 0.8500000000000002,-3.51 0.05000000000000002,-5.88 c-0.81,-2.37 -1.79,-3.81 -4.1,-5.97 c-2.3,-2.16 -4.1,-3.5 -7.43,-4.84 c-3.3200000000000003,-1.33 -5.41,-1.4300000000000002 -9.18,-1.83 c-3.7600000000000002,-0.4100000000000001 -5.55,-0.4 -9.64,-0.17 c-4.09,0.23 -6.39,0.4200000000000001 -10.81,1.32 c-4.41,0.91 -6.83,1.54 -11.26,3.2 c-4.43,1.6600000000000001 -6.74,2.73 -10.88,5.12 c-4.15,2.39 -6.24,3.7600000000000002 -9.84,6.82 c-3.6100000000000003,3.07 -5.45,4.84 -8.21,8.52 c-2.77,3.6900000000000004 -4.14,5.77 -5.62,9.91 c-1.48,4.14 -1.94,6.46 -1.77,10.78 c0.18000000000000005,4.32 0.7100000000000002,6.75 2.6500000000000004,10.82 s3.5,6.14 7.03,9.55 c3.54,3.41 5.87,4.96 10.64,7.51 c4.76,2.55 7.55,3.66 13.17,5.24 c5.63,1.58 8.81,2.11 14.95,2.66 c6.15,0.56 9.48,0.55 15.78,0.11000000000000003 c6.29,-0.4400000000000001 9.63,-0.97 15.7,-2.31 c6.07,-1.33 9.24,-2.2800000000000002 14.65,-4.36 c5.41,-2.08 8.03,-3.29 12.39,-6.05 c4.35,-2.7600000000000002 6.37,-4.27 9.39,-7.74 c3.02,-3.48 4.24,-5.59 5.71,-9.63 c1.47,-4.05 1.81,-6.46 1.6300000000000003,-10.6 c-0.18000000000000005,-4.14 -0.97,-6.24 -2.52,-10.11 c-1.55,-3.88 -2.6900000000000004,-5.87 -5.22,-9.28 c-2.5300000000000002,-3.41 -4.32,-5 -7.43,-7.75 c-3.12,-2.7600000000000002 -5,-3.93 -8.16,-6.03 s-4.8900000000000015,-3.42 -7.6400000000000015,-4.47 c-2.75,-1.06 -4.14,-0.9400000000000002 -6.1,-0.81 c-1.96,0.13 -2.71,0.8300000000000002 -3.7,1.47 c-1,0.6500000000000002 -1.01,1.01 -1.28,1.75 c-0.27,0.7300000000000002 -0.17,1.17 -0.07,1.92 c0.1,0.7400000000000002 0.08000000000000003,0.9500000000000002 0.5700000000000002,1.81 c0.4900000000000001,0.8500000000000002 0.7000000000000002,1.47 1.8900000000000001,2.47 c1.18,1 1.84,1.52 4.04,2.5300000000000002 c2.2,1.01 4.14,1.1400000000000001 6.97,2.51 c2.84,1.37 4.55,2.27 7.2,4.34 c2.66,2.08 4.04,3.4 6.07,6.03 c2.03,2.64 2.85,4.29 4.09,7.14 c1.24,2.85 1.8,4.23 2.1,7.11 c0.3100000000000001,2.89 0.24000000000000005,4.36 -0.5800000000000002,7.3100000000000005 c-0.8200000000000002,2.94 -1.36,4.5600000000000005 -3.52,7.42 c-2.16,2.85 -3.63,4.3 -7.27,6.85 c-3.64,2.55 -6.02,3.85 -10.93,5.9 c-4.91,2.05 -7.93,3.05 -13.61,4.36 c-5.68,1.31 -8.870000000000001,1.82 -14.78,2.19 c-5.9,0.3800000000000001 -9.06,0.3100000000000001 -14.73,-0.3300000000000001 c-5.68,-0.6500000000000002 -8.620000000000001,-1.27 -13.64,-2.89 c-5.02,-1.62 -7.47,-2.8200000000000003 -11.47,-5.22 c-4,-2.4 -5.82,-3.95 -8.51,-6.8 c-2.6900000000000004,-2.84 -3.62,-4.44 -4.94,-7.43 c-1.32,-2.99 -1.57,-4.51 -1.6700000000000004,-7.53 c-0.11000000000000003,-3.02 0.07,-4.47 1.1400000000000001,-7.55 c1.06,-3.07 1.98,-4.78 4.16,-7.8100000000000005 c2.18,-3.03 3.6900000000000004,-4.68 6.74,-7.32 c3.06,-2.6500000000000004 4.91,-3.9 8.56,-5.92 c3.6500000000000004,-2.02 5.76,-2.91 9.7,-4.19 c3.93,-1.29 6.11,-1.7200000000000002 9.97,-2.23 c3.8600000000000003,-0.51 5.95,-0.51 9.33,-0.3200000000000001 c3.37,0.19000000000000006 4.94,0.4800000000000001 7.53,1.26 c2.6,0.78 3.55,1.4100000000000001 5.44,2.62 c1.8900000000000001,1.21 2.45,2.18 4.02,3.43 c1.57,1.25 2.14,1.9300000000000002 3.83,2.8 c1.6900000000000004,0.8700000000000002 2.71,1.83 4.6,1.54 c1.8800000000000003,-0.28 3.84,-1.19 4.82,-2.95 m61.32,0.4400000000000001 c-1.6300000000000003,0.54 -2.26,1.19 -3.24,2.81 c-0.99,1.62 -1.52,2.83 -1.6800000000000004,5.3100000000000005 c-0.15000000000000005,2.48 0.3500000000000001,4.03 0.8800000000000002,7.09 c0.53,3.06 1.13,4.76 1.7600000000000002,8.21 c0.6300000000000002,3.45 0.8700000000000002,5.42 1.37,9.05 c0.5,3.64 0.8400000000000002,5.6400000000000015 1.13,9.13 c0.2900000000000001,3.49 0.020000000000000007,5.4 0.3300000000000001,8.31 c0.3000000000000001,2.91 0.21000000000000005,4.4 1.17,6.24 c0.9600000000000002,1.84 1.9300000000000002,2.67 3.64,2.95 c1.71,0.28 3.48,-0.13 4.9,-1.55 c1.42,-1.4300000000000002 2.44,-3.02 2.2,-5.58 c-0.23,-2.56 -1.8800000000000003,-4.01 -3.37,-7.22 c-1.5,-3.21 -2.6900000000000004,-5.2 -4.11,-8.84 c-1.42,-3.64 -2.03,-5.7 -2.98,-9.36 c-0.9500000000000002,-3.6500000000000004 -1.3900000000000001,-5.47 -1.77,-8.92 c-0.3800000000000001,-3.44 -0.3500000000000001,-5.13 -0.12000000000000002,-8.3 c0.23,-3.18 0.4700000000000001,-4.71 1.28,-7.5600000000000005 c0.81,-2.8600000000000003 1.23,-4.2 2.75,-6.74 s2.41,-3.74 4.85,-5.97 c2.43,-2.22 3.9,-3.35 7.32,-5.16 c3.42,-1.81 5.42,-2.67 9.76,-3.87 c4.35,-1.21 7.4,-1.5 11.98,-2.15 c4.58,-0.6500000000000002 7.23,-0.4700000000000001 10.92,-1.1 c3.7,-0.6200000000000002 6.09,-0.6800000000000004 7.57,-2.02 c1.49,-1.34 1.48,-3.42 -0.14,-4.66 c-1.6300000000000003,-1.24 -4.09,-1.44 -8,-1.54 c-3.9,-0.09000000000000004 -6.65,0.3400000000000002 -11.54,1.06 c-4.9,0.7200000000000002 -8.07,1.23 -12.94,2.55 c-4.87,1.33 -7.22,2.09 -11.42,4.06 c-4.19,1.98 -6.24,3.08 -9.56,5.8100000000000005 c-3.3200000000000003,2.73 -4.84,4.44 -7.04,7.84 c-2.19,3.41 -2.87,5.44 -3.94,9.21 c-1.08,3.77 -1.23,5.73 -1.4300000000000002,9.64 c-0.21000000000000005,3.92 -0.05000000000000002,5.94 0.3900000000000001,9.93 c0.45,3.99 1.02,5.99 1.82,10.01 s1.44,6.08 2.2,10.09 c0.7600000000000002,4.02 0.91,6.4 1.59,9.99 c0.6700000000000004,3.6 0.3600000000000001,5.63 1.77,7.98 c1.42,2.35 2.98,3.17 5.3,3.7600000000000002 c2.3200000000000003,0.6000000000000002 4.38,0.3400000000000002 6.28,-0.77 c1.9,-1.11 2.68,-2.52 3.2,-4.77 c0.53,-2.26 -0.13,-3.59 -0.56,-6.53 c-0.4300000000000001,-2.94 -1.01,-4.72 -1.58,-8.15 c-0.5700000000000002,-3.44 -0.92,-5.46 -1.26,-9.03 c-0.3400000000000002,-3.5700000000000003 -0.4700000000000001,-5.44 -0.4400000000000001,-8.82 c0.030000000000000013,-3.38 0.46,-5.09 0.6000000000000002,-8.08 c0.15000000000000005,-2.99 0.5,-4.54 0.13,-6.87 s-0.9600000000000002,-3.31 -1.97,-4.78 c-1.01,-1.46 -1.5,-2.02 -3.1,-2.56 s-3.2800000000000002,-0.6700000000000004 -4.9,-0.13 " style="" id="svg_6" class="" opacity="1" fill="#ffffff" fill-opacity="1" stroke="#ffffff" stroke-opacity="1" filter=""/></g><defs><filter id="f121" inkscape:label="Simple blur" xmlns:inkscape="http://www.inkscape.org/namespaces/inkscape" inkscape:menu="ABCs" inkscape:menu-tooltip="Simple Gaussian blur, same as the blur slider in Fill and Stroke dialog" color-interpolation-filters="sRGB">
            <feGaussianBlur stdDeviation="3"/>
        </filter></defs></svg>