<svg xmlns="http://www.w3.org/2000/svg" id="canvas" viewBox="311.083 343.846 1256.654 231.802"><path d="M 325.56,350.21 C 323.91 351.24, 323.20 352.81, 322.49 355.93 C 321.77 359.06, 322.23 361.20, 321.98 365.83 C 321.73 370.47, 321.63 373.47, 321.23 379.12 C 320.84 384.77, 320.62 387.77, 320.00 394.07 C 319.39 400.37, 318.85 403.74, 318.15 410.62 C 317.45 417.50, 317.07 421.22, 316.48 428.45 C 315.89 435.67, 315.61 439.44, 315.19 446.75 C 314.76 454.05, 314.56 457.82, 314.35 464.99 C 314.13 472.15, 314.06 475.84, 314.09 482.56 C 314.13 489.28, 314.30 492.62, 314.52 498.58 C 314.74 504.53, 314.89 507.39, 315.19 512.34 C 315.49 517.30, 315.59 519.89, 316.02 523.35 C 316.44 526.81, 316.48 527.87, 317.30 529.64 C 318.12 531.41, 319.18 531.68, 320.11 532.21 C 321.03 532.75, 321.41 532.38, 321.93 532.32 C 322.46 532.27, 322.28 532.15, 322.72 531.93 C 323.16 531.72, 323.54 532.01, 324.15 531.24 C 324.76 530.46, 325.64 529.94, 325.77 528.06 C 325.91 526.18, 325.57 525.14, 324.83 521.83 C 324.08 518.52, 322.95 516.22, 322.06 511.50 C 321.16 506.77, 320.88 504.01, 320.35 498.21 C 319.82 492.40, 319.60 489.09, 319.41 482.47 C 319.22 475.85, 319.25 472.21, 319.40 465.12 C 319.56 458.04, 319.75 454.29, 320.20 447.04 C 320.64 439.80, 320.95 436.06, 321.62 428.90 C 322.30 421.74, 322.70 418.06, 323.58 411.25 C 324.47 404.44, 325.08 401.09, 326.06 394.83 C 327.03 388.58, 327.53 385.58, 328.47 379.98 C 329.40 374.38, 329.94 371.42, 330.74 366.84 C 331.54 362.25, 332.48 360.27, 332.48 357.07 C 332.48 353.86, 332.13 352.16, 330.75 350.79 C 329.36 349.42, 327.21 349.19, 325.56 350.21" style="stroke: black; fill: black;"/><path d="M 418.01,359.31 C 416.60 358.40, 415.84 358.39, 413.97 358.60 C 412.10 358.81, 410.83 358.84, 408.67 360.38 C 406.52 361.91, 405.70 363.65, 403.21 366.26 C 400.71 368.88, 399.39 370.49, 396.20 373.45 C 393.00 376.42, 391.09 377.92, 387.24 381.09 C 383.39 384.25, 381.12 386.02, 376.97 389.27 C 372.82 392.52, 370.59 394.21, 366.47 397.34 C 362.35 400.48, 360.23 402.04, 356.36 404.95 C 352.49 407.87, 350.52 409.24, 347.12 411.92 C 343.71 414.59, 342.08 415.75, 339.34 418.32 C 336.60 420.89, 335.16 421.93, 333.43 424.77 C 331.69 427.61, 331.13 429.31, 330.67 432.52 C 330.20 435.72, 330.15 437.61, 331.10 440.80 C 332.05 444.00, 332.93 445.76, 335.40 448.50 C 337.87 451.24, 339.75 452.24, 343.46 454.49 C 347.18 456.74, 349.40 457.66, 353.96 459.76 C 358.53 461.86, 361.03 462.84, 366.27 465.00 C 371.52 467.16, 374.40 468.28, 380.20 470.57 C 385.99 472.86, 389.17 474.10, 395.26 476.44 C 401.34 478.79, 404.93 480.11, 410.62 482.28 C 416.32 484.45, 419.26 485.89, 423.73 487.29 C 428.20 488.70, 430.85 489.75, 432.97 489.31 C 435.09 488.86, 435.77 486.67, 434.35 485.07 C 432.93 483.47, 430.18 483.04, 425.87 481.31 C 421.56 479.57, 418.52 478.49, 412.82 476.40 C 407.12 474.32, 403.44 473.20, 397.39 470.89 C 391.34 468.57, 388.21 467.29, 382.56 464.85 C 376.91 462.41, 374.09 461.14, 369.13 458.68 C 364.17 456.23, 361.77 455.01, 357.77 452.58 C 353.76 450.15, 351.85 448.85, 349.12 446.53 C 346.38 444.20, 345.62 442.80, 344.08 440.94 C 342.55 439.07, 342.09 438.56, 341.43 437.19 C 340.78 435.82, 340.58 435.46, 340.82 434.07 C 341.06 432.68, 341.56 432.11, 342.63 430.24 C 343.69 428.37, 344.20 427.15, 346.15 424.72 C 348.11 422.29, 349.47 420.88, 352.42 418.09 C 355.38 415.30, 357.26 413.79, 360.93 410.77 C 364.61 407.75, 366.71 406.15, 370.80 403.01 C 374.89 399.88, 377.14 398.21, 381.38 395.08 C 385.63 391.96, 387.94 390.26, 392.03 387.40 C 396.13 384.53, 398.18 383.12, 401.86 380.75 C 405.54 378.37, 407.34 377.30, 410.45 375.53 C 413.56 373.76, 415.39 373.55, 417.42 371.91 C 419.45 370.27, 419.88 369.08, 420.59 367.33 C 421.31 365.58, 421.52 364.78, 421.00 363.18 C 420.48 361.58, 419.41 360.23, 418.01 359.31" style="stroke: black; fill: black;"/><path d="M 528.84,438.77 C 529.92 437.07, 529.86 435.34, 529.21 433.00 C 528.56 430.66, 527.68 429.28, 525.60 427.06 C 523.53 424.84, 521.94 423.42, 518.85 421.90 C 515.76 420.37, 513.81 420.04, 510.15 419.45 C 506.50 418.87, 504.52 418.84, 500.55 418.97 C 496.58 419.11, 494.50 419.24, 490.31 420.13 C 486.12 421.02, 483.86 421.65, 479.61 423.40 C 475.36 425.15, 473.07 426.34, 469.06 428.90 C 465.05 431.46, 463.06 432.92, 459.55 436.19 C 456.04 439.47, 454.25 441.42, 451.49 445.27 C 448.72 449.13, 447.46 451.28, 445.73 455.46 C 444.00 459.65, 443.36 461.89, 442.84 466.22 C 442.31 470.54, 442.23 472.96, 443.10 477.09 C 443.98 481.22, 444.94 483.35, 447.20 486.88 C 449.47 490.41, 451.06 492.12, 454.44 494.74 C 457.82 497.36, 459.88 498.50, 464.09 500.01 C 468.29 501.52, 470.88 501.93, 475.46 502.29 C 480.05 502.66, 482.43 502.50, 487.03 501.83 C 491.63 501.16, 494.02 500.51, 498.47 498.93 C 502.92 497.35, 505.27 496.35, 509.28 493.92 C 513.29 491.48, 515.13 489.91, 518.51 486.75 C 521.89 483.59, 523.57 481.80, 526.19 478.13 C 528.81 474.47, 529.84 472.39, 531.60 468.42 C 533.37 464.45, 533.94 462.33, 535.03 458.29 C 536.12 454.25, 536.52 452.08, 537.05 448.22 C 537.59 444.35, 538.46 441.87, 537.69 438.99 C 536.91 436.10, 535.37 434.76, 533.18 433.79 C 530.99 432.82, 528.98 432.92, 526.75 434.14 C 524.52 435.35, 522.72 436.95, 522.02 439.87 C 521.33 442.80, 522.44 444.97, 523.29 448.75 C 524.13 452.54, 525.02 454.71, 526.24 458.81 C 527.46 462.90, 527.99 465.11, 529.39 469.21 C 530.80 473.30, 531.55 475.36, 533.26 479.28 C 534.98 483.20, 535.95 485.23, 537.97 488.80 C 540.00 492.37, 541.14 494.41, 543.39 497.11 C 545.63 499.81, 546.96 501.07, 549.21 502.29 C 551.46 503.51, 553.05 503.65, 554.65 503.21 C 556.25 502.77, 556.98 501.66, 557.21 500.09 C 557.44 498.52, 556.91 497.36, 555.80 495.38 C 554.68 493.39, 553.62 492.49, 551.65 490.17 C 549.68 487.85, 548.00 486.68, 545.96 483.77 C 543.91 480.87, 542.98 479.10, 541.41 475.65 C 539.84 472.19, 539.14 470.27, 538.10 466.50 C 537.06 462.73, 536.59 460.61, 536.20 456.78 C 535.80 452.94, 536.09 450.70, 536.14 447.32 C 536.18 443.94, 537.10 442.20, 536.41 439.88 C 535.72 437.57, 534.37 436.58, 532.69 435.74 C 531.01 434.91, 529.52 434.82, 528.02 435.71 C 526.52 436.60, 525.46 437.80, 525.20 440.20 C 524.94 442.60, 526.53 444.50, 526.71 447.71 C 526.90 450.92, 526.76 452.80, 526.13 456.26 C 525.51 459.73, 524.98 461.62, 523.61 465.02 C 522.24 468.43, 521.45 470.16, 519.30 473.30 C 517.15 476.45, 515.70 478.03, 512.85 480.75 C 510.00 483.47, 508.44 484.84, 505.02 486.92 C 501.61 489.00, 499.58 489.85, 495.76 491.16 C 491.93 492.47, 489.79 493.00, 485.89 493.48 C 482.00 493.97, 480.00 493.99, 476.27 493.58 C 472.54 493.18, 470.46 492.71, 467.25 491.47 C 464.04 490.24, 462.64 489.35, 460.21 487.41 C 457.78 485.46, 456.73 484.22, 455.11 481.75 C 453.48 479.29, 452.78 478.00, 452.08 475.08 C 451.37 472.17, 451.29 470.46, 451.59 467.16 C 451.89 463.86, 452.25 462.02, 453.56 458.59 C 454.88 455.16, 455.85 453.29, 458.15 450.00 C 460.45 446.71, 462.01 444.96, 465.07 442.15 C 468.12 439.35, 469.90 438.09, 473.44 435.99 C 476.98 433.88, 479.06 432.91, 482.75 431.63 C 486.45 430.35, 488.39 429.99, 491.91 429.57 C 495.42 429.15, 497.21 429.25, 500.32 429.54 C 503.43 429.83, 505.09 430.22, 507.47 431.03 C 509.85 431.85, 510.53 432.43, 512.21 433.61 C 513.89 434.80, 514.44 435.71, 515.87 436.94 C 517.30 438.17, 517.76 438.86, 519.35 439.77 C 520.94 440.68, 521.91 441.71, 523.81 441.51 C 525.71 441.30, 527.76 440.47, 528.84 438.77" style="stroke: black; fill: black;"/><path d="M 618.73,420.77 C 618.07 418.86, 616.78 417.65, 614.32 416.55 C 611.87 415.45, 609.92 415.34, 606.46 415.26 C 603.00 415.18, 600.75 415.64, 597.03 416.16 C 593.30 416.68, 591.40 417.04, 587.84 417.85 C 584.28 418.67, 582.24 418.71, 579.24 420.22 C 576.23 421.73, 574.71 422.91, 572.83 425.40 C 570.95 427.89, 570.15 429.61, 569.84 432.68 C 569.53 435.74, 569.66 437.88, 571.26 440.71 C 572.86 443.53, 574.42 444.76, 577.82 446.80 C 581.23 448.84, 583.63 449.26, 588.28 450.92 C 592.93 452.57, 595.68 453.34, 601.09 455.07 C 606.49 456.81, 609.63 457.68, 615.31 459.59 C 620.98 461.49, 624.12 462.50, 629.45 464.60 C 634.78 466.70, 637.50 467.85, 641.97 470.09 C 646.44 472.32, 648.71 473.56, 651.80 475.77 C 654.89 477.98, 655.78 479.45, 657.42 481.13 C 659.06 482.81, 659.59 483.25, 660.01 484.16 C 660.44 485.07, 660.34 485.05, 659.56 485.68 C 658.77 486.31, 657.99 486.17, 656.08 487.32 C 654.17 488.46, 653.19 489.85, 649.99 491.40 C 646.80 492.95, 644.53 493.85, 640.10 495.06 C 635.68 496.27, 632.91 496.83, 627.87 497.46 C 622.82 498.09, 620.02 498.23, 614.88 498.21 C 609.74 498.19, 606.89 498.06, 602.18 497.36 C 597.46 496.67, 595.02 496.07, 591.32 494.73 C 587.62 493.39, 585.93 492.36, 583.69 490.66 C 581.45 488.95, 580.92 487.96, 580.14 486.21 C 579.36 484.45, 579.80 483.70, 579.80 481.90 C 579.80 480.10, 580.31 479.08, 580.12 477.22 C 579.94 475.36, 580.05 473.88, 578.89 472.59 C 577.73 471.30, 576.17 470.34, 574.33 470.75 C 572.48 471.17, 570.87 472.29, 569.66 474.66 C 568.44 477.03, 567.95 479.22, 568.25 482.59 C 568.56 485.96, 569.10 488.39, 571.19 491.49 C 573.28 494.60, 575.17 495.96, 578.71 498.11 C 582.26 500.27, 584.40 500.97, 588.90 502.26 C 593.41 503.55, 596.05 503.94, 601.23 504.55 C 606.41 505.16, 609.35 505.23, 614.82 505.30 C 620.30 505.37, 623.18 505.29, 628.59 504.90 C 634.01 504.51, 636.89 504.16, 641.88 503.35 C 646.88 502.54, 649.37 502.10, 653.57 500.86 C 657.76 499.62, 659.96 499.32, 662.85 497.15 C 665.74 494.99, 666.90 493.13, 668.03 490.05 C 669.15 486.96, 669.22 484.88, 668.48 481.74 C 667.75 478.59, 666.86 476.88, 664.36 474.33 C 661.86 471.78, 659.87 471.10, 655.97 469.00 C 652.07 466.90, 649.70 465.93, 644.86 463.85 C 640.02 461.76, 637.25 460.69, 631.78 458.59 C 626.31 456.50, 623.13 455.46, 617.49 453.38 C 611.86 451.30, 608.73 450.31, 603.60 448.19 C 598.48 446.08, 595.82 444.96, 591.88 442.80 C 587.93 440.65, 586.28 439.12, 583.88 437.42 C 581.49 435.72, 580.96 435.06, 579.91 434.30 C 578.86 433.55, 578.57 433.93, 578.63 433.65 C 578.68 433.36, 579.06 433.35, 580.19 432.89 C 581.31 432.44, 582.20 432.13, 584.25 431.37 C 586.30 430.60, 587.65 429.74, 590.44 429.08 C 593.23 428.42, 595.05 428.23, 598.20 428.07 C 601.36 427.91, 603.31 428.22, 606.20 428.27 C 609.10 428.32, 610.40 428.77, 612.68 428.33 C 614.96 427.89, 616.41 427.58, 617.62 426.07 C 618.83 424.56, 619.39 422.67, 618.73 420.77" style="stroke: black; fill: black;"/><path d="M 683.50,439.58 C 682.05 440.59, 681.55 441.67, 681.18 443.82 C 680.82 445.97, 681.01 447.18, 681.67 450.35 C 682.33 453.52, 683.41 455.54, 684.48 459.68 C 685.56 463.81, 686.10 466.17, 687.05 471.03 C 687.99 475.88, 688.44 478.51, 689.21 483.95 C 689.98 489.40, 690.24 492.41, 690.92 498.26 C 691.60 504.11, 692.00 507.27, 692.62 513.20 C 693.24 519.12, 693.54 522.17, 694.02 527.89 C 694.50 533.60, 694.75 536.54, 695.03 541.77 C 695.30 547.01, 695.48 549.68, 695.41 554.06 C 695.34 558.45, 694.62 560.63, 694.69 563.71 C 694.76 566.78, 695.17 567.78, 695.76 569.43 C 696.34 571.08, 696.64 571.43, 697.63 571.95 C 698.61 572.48, 699.78 572.26, 700.67 572.05 C 701.57 571.84, 702.67 570.92, 702.11 570.90 C 701.55 570.88, 698.35 571.60, 697.88 571.94 C 697.41 572.29, 698.78 572.71, 699.77 572.64 C 700.75 572.57, 701.92 572.35, 702.81 571.60 C 703.71 570.85, 703.87 570.55, 704.25 568.89 C 704.62 567.22, 704.89 566.33, 704.69 563.27 C 704.49 560.21, 703.84 558.01, 703.25 553.59 C 702.66 549.18, 702.33 546.47, 701.74 541.22 C 701.14 535.96, 700.86 533.03, 700.28 527.30 C 699.69 521.57, 699.39 518.50, 698.80 512.56 C 698.20 506.62, 697.84 503.47, 697.30 497.59 C 696.76 491.71, 696.55 488.70, 696.08 483.17 C 695.61 477.65, 695.32 474.97, 694.95 469.98 C 694.58 464.99, 694.44 462.58, 694.25 458.22 C 694.07 453.87, 694.47 451.48, 694.01 448.21 C 693.55 444.93, 693.06 443.72, 691.95 441.84 C 690.84 439.96, 690.15 439.24, 688.46 438.79 C 686.77 438.34, 684.96 438.58, 683.50 439.58" style="stroke: black; fill: black;"/><path d="M 681.04,443.36 C 683.02 443.31, 684.19 442.07, 686.18 440.27 C 688.17 438.48, 688.50 436.77, 690.98 434.37 C 693.47 431.98, 695.07 430.26, 698.62 428.30 C 702.17 426.34, 704.37 425.67, 708.74 424.57 C 713.11 423.47, 715.74 423.05, 720.45 422.80 C 725.16 422.55, 727.74 422.67, 732.31 423.34 C 736.88 424.00, 739.26 424.59, 743.29 426.15 C 747.33 427.70, 749.33 428.82, 752.49 431.12 C 755.65 433.42, 757.05 434.94, 759.08 437.66 C 761.11 440.37, 761.82 441.84, 762.64 444.69 C 763.46 447.54, 763.52 448.92, 763.20 451.92 C 762.88 454.91, 762.47 456.57, 761.03 459.67 C 759.58 462.77, 758.58 464.47, 755.98 467.42 C 753.37 470.37, 751.59 471.87, 748.00 474.42 C 744.41 476.98, 742.31 478.21, 738.03 480.19 C 733.74 482.17, 731.22 483.04, 726.57 484.32 C 721.92 485.60, 719.26 486.09, 714.78 486.60 C 710.29 487.12, 707.99 487.21, 704.14 486.90 C 700.29 486.60, 698.48 485.63, 695.51 485.09 C 692.54 484.54, 691.37 484.20, 689.28 484.19 C 687.19 484.17, 686.19 484.16, 685.04 485.01 C 683.89 485.85, 683.21 486.93, 683.52 488.43 C 683.84 489.92, 684.56 491.19, 686.62 492.50 C 688.68 493.81, 690.35 494.42, 693.82 494.98 C 697.30 495.54, 699.60 495.45, 704.00 495.29 C 708.40 495.12, 710.90 494.93, 715.82 494.16 C 720.73 493.38, 723.50 492.84, 728.56 491.41 C 733.61 489.97, 736.32 489.09, 741.09 486.98 C 745.86 484.88, 748.21 483.67, 752.42 480.89 C 756.63 478.12, 758.83 476.58, 762.15 473.10 C 765.46 469.63, 766.99 467.57, 768.99 463.51 C 771.00 459.46, 771.76 457.12, 772.19 452.84 C 772.61 448.56, 772.41 446.18, 771.12 442.10 C 769.83 438.03, 768.56 435.95, 765.74 432.46 C 762.91 428.96, 760.98 427.30, 757.01 424.63 C 753.05 421.96, 750.64 420.83, 745.91 419.12 C 741.18 417.41, 738.52 416.81, 733.37 416.07 C 728.21 415.32, 725.41 415.23, 720.14 415.40 C 714.88 415.56, 712.13 415.92, 707.05 416.90 C 701.98 417.87, 699.29 418.35, 694.76 420.28 C 690.24 422.21, 687.89 423.92, 684.41 426.53 C 680.93 429.14, 678.96 430.54, 677.34 433.34 C 675.73 436.14, 675.58 438.52, 676.32 440.53 C 677.06 442.53, 679.07 443.41, 681.04 443.36" style="stroke: black; fill: black;"/><path d="M 850.43,437.66 C 851.12 435.81, 850.74 434.25, 849.68 432.19 C 848.63 430.13, 847.53 429.06, 845.16 427.37 C 842.78 425.68, 841.04 424.62, 837.80 423.74 C 834.55 422.86, 832.61 422.93, 828.94 422.98 C 825.28 423.02, 823.40 423.28, 819.48 423.96 C 815.57 424.64, 813.45 425.07, 809.38 426.38 C 805.31 427.68, 803.19 428.53, 799.15 430.49 C 795.11 432.44, 792.89 433.62, 789.17 436.15 C 785.45 438.67, 783.68 440.05, 780.57 443.11 C 777.46 446.16, 775.95 447.86, 773.64 451.41 C 771.33 454.96, 770.16 456.94, 769.02 460.85 C 767.87 464.75, 767.60 466.95, 767.92 470.91 C 768.24 474.88, 768.81 477.08, 770.61 480.67 C 772.41 484.25, 773.83 486.08, 776.91 488.84 C 779.99 491.61, 781.98 492.78, 786.02 494.49 C 790.07 496.21, 792.50 496.78, 797.15 497.40 C 801.80 498.02, 804.44 498.01, 809.28 497.60 C 814.13 497.18, 816.64 496.65, 821.39 495.32 C 826.14 494.00, 828.67 493.07, 833.03 490.98 C 837.38 488.89, 839.48 487.58, 843.17 484.87 C 846.86 482.16, 848.59 480.64, 851.49 477.45 C 854.39 474.25, 855.70 472.48, 857.66 468.90 C 859.62 465.32, 860.28 463.27, 861.29 459.53 C 862.30 455.79, 862.42 453.87, 862.70 450.22 C 862.98 446.57, 863.34 444.49, 862.68 441.27 C 862.01 438.06, 861.31 436.01, 859.38 434.14 C 857.46 432.26, 855.51 431.80, 853.05 431.91 C 850.60 432.02, 848.94 432.84, 847.11 434.70 C 845.28 436.55, 844.07 438.18, 843.90 441.18 C 843.74 444.18, 845.08 446.11, 846.27 449.71 C 847.46 453.31, 848.38 455.29, 849.87 459.18 C 851.36 463.06, 852.01 465.15, 853.73 469.13 C 855.45 473.11, 856.44 475.20, 858.47 479.06 C 860.50 482.93, 861.48 484.92, 863.88 488.45 C 866.28 491.98, 867.70 493.71, 870.48 496.73 C 873.26 499.75, 874.76 501.21, 877.80 503.56 C 880.83 505.92, 882.63 507.38, 885.64 508.49 C 888.66 509.59, 890.51 509.42, 892.86 509.09 C 895.21 508.77, 896.43 508.12, 897.41 506.87 C 898.39 505.63, 898.30 504.24, 897.76 502.87 C 897.22 501.49, 896.24 501.09, 894.71 499.98 C 893.18 498.86, 892.34 498.29, 890.09 497.30 C 887.85 496.32, 886.09 496.47, 883.50 495.05 C 880.90 493.64, 879.59 492.56, 877.13 490.22 C 874.66 487.89, 873.35 486.41, 871.18 483.37 C 869.01 480.33, 868.06 478.54, 866.27 475.02 C 864.48 471.50, 863.54 469.52, 862.23 465.78 C 860.91 462.05, 860.40 460.07, 859.69 456.34 C 858.99 452.61, 858.93 450.38, 858.71 447.13 C 858.48 443.87, 859.11 442.21, 858.55 440.06 C 857.99 437.91, 857.20 437.27, 855.90 436.37 C 854.59 435.46, 853.35 435.10, 852.02 435.53 C 850.69 435.97, 849.63 436.86, 849.25 438.54 C 848.87 440.23, 849.61 441.61, 850.13 443.94 C 850.64 446.28, 851.55 447.56, 851.84 450.23 C 852.13 452.91, 852.05 454.44, 851.56 457.34 C 851.08 460.23, 850.72 461.82, 849.40 464.71 C 848.08 467.60, 847.20 469.06, 844.96 471.78 C 842.73 474.50, 841.30 475.90, 838.22 478.31 C 835.14 480.72, 833.33 481.95, 829.55 483.82 C 825.76 485.68, 823.46 486.53, 819.29 487.65 C 815.12 488.76, 812.87 489.16, 808.71 489.38 C 804.55 489.60, 802.26 489.43, 798.49 488.74 C 794.72 488.06, 792.82 487.40, 789.86 485.96 C 786.90 484.52, 785.71 483.52, 783.68 481.54 C 781.66 479.57, 780.90 478.41, 779.75 476.10 C 778.61 473.79, 778.22 472.52, 777.94 469.99 C 777.66 467.46, 777.66 466.17, 778.36 463.43 C 779.05 460.70, 779.73 459.12, 781.42 456.30 C 783.11 453.49, 784.29 451.93, 786.81 449.35 C 789.34 446.77, 790.84 445.55, 794.06 443.41 C 797.28 441.27, 799.33 440.21, 802.91 438.65 C 806.50 437.09, 808.42 436.44, 811.98 435.59 C 815.54 434.75, 817.45 434.57, 820.69 434.43 C 823.93 434.28, 825.62 434.43, 828.18 434.88 C 830.73 435.32, 831.57 435.80, 833.47 436.64 C 835.38 437.49, 836.06 438.24, 837.69 439.10 C 839.33 439.97, 839.95 440.50, 841.65 440.96 C 843.35 441.43, 844.45 442.09, 846.20 441.43 C 847.96 440.77, 849.73 439.51, 850.43 437.66" style="stroke: black; fill: black;"/><path d="M 915.84,441.24 C 914.19 442.06, 913.51 443.11, 912.73 445.29 C 911.95 447.46, 911.71 449.00, 911.95 452.10 C 912.19 455.20, 913.13 457.21, 913.92 460.81 C 914.72 464.41, 915.15 466.36, 915.93 470.09 C 916.70 473.83, 917.20 475.81, 917.79 479.47 C 918.37 483.13, 918.59 485.07, 918.86 488.40 C 919.14 491.74, 918.43 493.66, 919.15 496.16 C 919.88 498.67, 920.75 499.95, 922.48 500.93 C 924.21 501.91, 925.94 501.93, 927.81 501.08 C 929.69 500.22, 931.17 498.97, 931.86 496.66 C 932.55 494.35, 932.19 492.60, 931.27 489.53 C 930.35 486.45, 928.72 484.70, 927.28 481.30 C 925.83 477.90, 925.15 476.02, 924.03 472.52 C 922.91 469.02, 922.42 467.22, 921.67 463.78 C 920.93 460.35, 920.58 458.57, 920.30 455.35 C 920.02 452.14, 920.03 450.56, 920.26 447.71 C 920.48 444.85, 920.69 443.49, 921.41 441.08 C 922.14 438.67, 922.58 437.68, 923.88 435.66 C 925.18 433.63, 925.81 432.71, 927.90 430.95 C 930.00 429.19, 931.28 428.29, 934.36 426.86 C 937.45 425.44, 939.37 424.78, 943.34 423.84 C 947.32 422.90, 949.64 422.47, 954.25 422.17 C 958.85 421.87, 961.43 421.97, 966.35 422.34 C 971.27 422.72, 973.90 423.07, 978.84 424.05 C 983.78 425.02, 986.64 426.00, 991.07 427.24 C 995.50 428.47, 997.57 429.56, 1000.99 430.22 C 1004.41 430.88, 1006.47 431.31, 1008.17 430.54 C 1009.88 429.77, 1010.48 428.00, 1009.52 426.37 C 1008.55 424.74, 1006.64 423.75, 1003.34 422.39 C 1000.05 421.03, 997.69 420.67, 993.05 419.57 C 988.42 418.46, 985.39 417.76, 980.18 416.85 C 974.96 415.95, 972.23 415.54, 966.98 415.03 C 961.74 414.53, 959.00 414.27, 953.94 414.34 C 948.89 414.41, 946.33 414.64, 941.70 415.38 C 937.06 416.12, 934.79 416.55, 930.77 418.03 C 926.74 419.50, 924.74 420.43, 921.56 422.75 C 918.39 425.07, 916.98 426.57, 914.87 429.62 C 912.77 432.68, 912.04 434.53, 911.03 438.03 C 910.02 441.53, 909.95 443.45, 909.81 447.12 C 909.67 450.80, 909.87 452.67, 910.32 456.40 C 910.77 460.14, 911.28 462.07, 912.06 465.82 C 912.83 469.56, 913.38 471.39, 914.17 475.12 C 914.96 478.85, 915.47 480.82, 916.00 484.46 C 916.53 488.10, 916.14 490.31, 916.82 493.32 C 917.50 496.33, 917.79 497.83, 919.40 499.53 C 921.02 501.23, 922.78 501.77, 924.89 501.81 C 926.99 501.86, 928.58 501.26, 929.92 499.75 C 931.25 498.24, 931.64 496.86, 931.58 494.25 C 931.51 491.64, 930.39 490.00, 929.60 486.70 C 928.82 483.39, 928.36 481.38, 927.67 477.73 C 926.97 474.09, 926.54 472.13, 926.13 468.46 C 925.71 464.79, 925.68 462.89, 925.60 459.37 C 925.52 455.86, 926.02 453.81, 925.74 450.90 C 925.45 447.99, 925.12 446.76, 924.17 444.82 C 923.22 442.88, 922.66 441.91, 921.00 441.20 C 919.33 440.48, 917.50 440.42, 915.84 441.24" style="stroke: black; fill: black;"/><path d="M 1161.45,384.80 C 1159.82 385.51, 1159.11 386.37, 1158.32 388.48 C 1157.53 390.59, 1157.56 391.94, 1157.51 395.36 C 1157.45 398.77, 1157.96 400.98, 1158.03 405.55 C 1158.10 410.13, 1158.02 412.81, 1157.87 418.22 C 1157.71 423.63, 1157.51 426.56, 1157.25 432.59 C 1157.00 438.62, 1156.82 441.97, 1156.60 448.37 C 1156.39 454.76, 1156.36 458.12, 1156.18 464.56 C 1156.01 471.00, 1155.91 474.39, 1155.71 480.59 C 1155.52 486.79, 1155.32 489.92, 1155.20 495.55 C 1155.07 501.19, 1154.91 504.04, 1155.09 508.77 C 1155.26 513.49, 1154.86 517.12, 1156.09 519.17 C 1157.31 521.22, 1160.11 521.12, 1161.21 519.02 C 1162.32 516.92, 1161.55 513.36, 1161.60 508.68 C 1161.65 504.00, 1161.49 501.21, 1161.48 495.62 C 1161.47 490.03, 1161.46 486.90, 1161.55 480.72 C 1161.64 474.55, 1161.73 471.15, 1161.93 464.73 C 1162.12 458.31, 1162.17 454.97, 1162.52 448.63 C 1162.87 442.29, 1163.12 438.98, 1163.67 433.02 C 1164.21 427.06, 1164.54 424.16, 1165.25 418.81 C 1165.96 413.47, 1166.42 410.81, 1167.22 406.29 C 1168.02 401.77, 1168.82 399.64, 1169.25 396.20 C 1169.68 392.75, 1169.94 391.31, 1169.38 389.05 C 1168.82 386.80, 1168.03 385.77, 1166.44 384.92 C 1164.86 384.07, 1163.07 384.09, 1161.45 384.80" style="stroke: black; fill: black;"/><path d="M 1162.43,373.32 C 1161.38 374.42, 1160.85 374.95, 1160.70 376.77 C 1160.55 378.59, 1160.40 379.92, 1161.69 382.41 C 1162.99 384.91, 1164.93 385.80, 1167.20 389.24 C 1169.47 392.68, 1170.67 395.00, 1173.05 399.63 C 1175.44 404.26, 1176.62 406.92, 1179.13 412.39 C 1181.63 417.87, 1182.92 420.93, 1185.59 427.01 C 1188.26 433.09, 1189.53 436.43, 1192.48 442.80 C 1195.42 449.18, 1197.11 452.59, 1200.31 458.89 C 1203.51 465.20, 1205.24 468.39, 1208.50 474.33 C 1211.76 480.27, 1213.41 483.22, 1216.61 488.60 C 1219.80 493.98, 1221.46 496.60, 1224.49 501.23 C 1227.52 505.85, 1228.98 507.94, 1231.76 511.71 C 1234.53 515.47, 1235.78 517.24, 1238.36 520.06 C 1240.95 522.87, 1242.01 524.35, 1244.67 525.79 C 1247.33 527.23, 1248.87 527.41, 1251.65 527.26 C 1254.43 527.10, 1256.12 526.69, 1258.55 525.02 C 1260.98 523.36, 1262.66 522.02, 1263.80 518.92 C 1264.95 515.83, 1264.32 513.71, 1264.27 509.55 C 1264.23 505.39, 1263.88 503.11, 1263.58 498.13 C 1263.28 493.15, 1263.13 490.36, 1262.78 484.65 C 1262.43 478.94, 1262.25 475.83, 1261.81 469.57 C 1261.38 463.31, 1261.10 459.99, 1260.61 453.35 C 1260.12 446.70, 1259.90 443.12, 1259.37 436.33 C 1258.83 429.54, 1258.56 426.06, 1257.95 419.39 C 1257.34 412.73, 1257.06 409.34, 1256.31 403.03 C 1255.57 396.71, 1255.06 393.60, 1254.23 387.83 C 1253.39 382.06, 1252.97 379.25, 1252.13 374.17 C 1251.29 369.09, 1250.75 366.62, 1250.01 362.42 C 1249.27 358.23, 1249.47 355.98, 1248.43 353.21 C 1247.39 350.44, 1246.15 349.84, 1244.83 348.57 C 1243.51 347.31, 1242.99 346.97, 1241.85 346.86 C 1240.71 346.76, 1239.85 347.19, 1239.13 348.06 C 1238.42 348.92, 1238.41 349.51, 1238.28 351.20 C 1238.16 352.90, 1237.72 353.87, 1238.51 356.53 C 1239.29 359.20, 1240.81 360.72, 1242.22 364.52 C 1243.62 368.32, 1244.33 370.68, 1245.55 375.54 C 1246.77 380.39, 1247.27 383.16, 1248.31 388.80 C 1249.35 394.44, 1249.91 397.51, 1250.76 403.73 C 1251.61 409.95, 1251.92 413.30, 1252.56 419.90 C 1253.19 426.50, 1253.46 429.97, 1253.95 436.73 C 1254.43 443.49, 1254.63 447.08, 1254.98 453.70 C 1255.34 460.33, 1255.55 463.65, 1255.72 469.86 C 1255.89 476.08, 1255.94 479.17, 1255.83 484.80 C 1255.73 490.43, 1255.63 493.25, 1255.19 498.01 C 1254.75 502.77, 1254.38 505.11, 1253.65 508.59 C 1252.91 512.07, 1251.82 513.38, 1251.50 515.42 C 1251.18 517.46, 1251.95 518.03, 1252.05 518.79 C 1252.15 519.55, 1252.45 519.51, 1252.02 519.21 C 1251.60 518.91, 1251.42 518.40, 1249.92 517.28 C 1248.42 516.16, 1247.04 515.63, 1244.52 513.59 C 1242.01 511.55, 1240.33 510.27, 1237.35 507.08 C 1234.37 503.89, 1232.80 501.94, 1229.62 497.65 C 1226.43 493.36, 1224.70 490.82, 1221.41 485.64 C 1218.12 480.46, 1216.44 477.57, 1213.15 471.74 C 1209.87 465.92, 1208.14 462.75, 1204.99 456.52 C 1201.83 450.29, 1200.20 446.93, 1197.38 440.59 C 1194.56 434.24, 1193.35 430.92, 1190.90 424.78 C 1188.46 418.65, 1187.27 415.53, 1185.14 409.89 C 1183.01 404.24, 1181.96 401.55, 1180.26 396.57 C 1178.56 391.58, 1177.79 389.11, 1176.63 384.98 C 1175.48 380.84, 1175.84 378.55, 1174.49 375.87 C 1173.14 373.19, 1171.60 372.49, 1169.90 371.56 C 1168.20 370.64, 1167.48 370.91, 1165.99 371.26 C 1164.50 371.61, 1163.49 372.21, 1162.43 373.32" style="stroke: black; fill: black;"/><path d="M 1342.70,448.96 C 1343.61 447.22, 1343.46 445.71, 1342.68 443.47 C 1341.91 441.22, 1341.03 439.80, 1338.83 437.74 C 1336.63 435.67, 1334.84 434.44, 1331.68 433.13 C 1328.52 431.83, 1326.65 431.66, 1323.03 431.21 C 1319.40 430.75, 1317.52 430.68, 1313.56 430.87 C 1309.61 431.05, 1307.44 431.21, 1303.25 432.15 C 1299.06 433.09, 1296.82 433.82, 1292.60 435.56 C 1288.38 437.31, 1286.16 438.39, 1282.15 440.88 C 1278.14 443.36, 1276.13 444.80, 1272.57 447.99 C 1269.00 451.18, 1267.18 452.97, 1264.35 456.81 C 1261.52 460.66, 1260.11 462.88, 1258.41 467.22 C 1256.70 471.56, 1256.09 474.02, 1255.83 478.50 C 1255.57 482.98, 1255.74 485.38, 1257.10 489.61 C 1258.45 493.83, 1259.58 496.05, 1262.58 499.64 C 1265.58 503.24, 1267.75 504.94, 1272.11 507.58 C 1276.46 510.23, 1279.04 511.24, 1284.35 512.87 C 1289.67 514.51, 1292.75 515.08, 1298.70 515.75 C 1304.65 516.42, 1308.00 516.50, 1314.10 516.24 C 1320.20 515.98, 1323.37 515.52, 1329.19 514.45 C 1335.02 513.39, 1338.06 512.68, 1343.23 510.91 C 1348.40 509.14, 1350.80 508.10, 1355.05 505.62 C 1359.29 503.13, 1361.33 501.68, 1364.45 498.48 C 1367.57 495.28, 1368.94 493.42, 1370.65 489.62 C 1372.35 485.83, 1372.81 483.57, 1372.99 479.51 C 1373.16 475.44, 1372.77 473.20, 1371.52 469.30 C 1370.28 465.39, 1369.15 463.41, 1366.78 459.98 C 1364.41 456.56, 1362.67 454.96, 1359.65 452.16 C 1356.63 449.36, 1354.84 448.09, 1351.69 445.99 C 1348.54 443.90, 1346.71 442.52, 1343.89 441.69 C 1341.06 440.87, 1339.54 441.44, 1337.56 441.86 C 1335.59 442.29, 1334.80 442.76, 1334.02 443.82 C 1333.23 444.87, 1333.29 445.94, 1333.62 447.13 C 1333.96 448.32, 1334.53 448.58, 1335.69 449.75 C 1336.85 450.92, 1337.32 451.84, 1339.42 452.97 C 1341.52 454.10, 1343.47 454.04, 1346.19 455.38 C 1348.92 456.73, 1350.52 457.63, 1353.02 459.69 C 1355.52 461.75, 1356.87 463.15, 1358.70 465.68 C 1360.53 468.22, 1361.24 469.65, 1362.19 472.38 C 1363.13 475.11, 1363.40 476.55, 1363.44 479.32 C 1363.48 482.09, 1363.38 483.48, 1362.39 486.22 C 1361.40 488.96, 1360.74 490.38, 1358.50 493.02 C 1356.27 495.66, 1354.72 497.11, 1351.21 499.44 C 1347.71 501.76, 1345.62 502.88, 1340.98 504.64 C 1336.34 506.39, 1333.44 507.15, 1328.01 508.21 C 1322.59 509.26, 1319.56 509.70, 1313.86 509.90 C 1308.16 510.10, 1304.98 509.95, 1299.52 509.19 C 1294.07 508.43, 1291.23 507.74, 1286.58 506.10 C 1281.93 504.46, 1279.78 503.35, 1276.28 501.01 C 1272.77 498.67, 1271.24 497.18, 1269.04 494.39 C 1266.84 491.60, 1266.21 490.13, 1265.27 487.05 C 1264.34 483.97, 1264.19 482.35, 1264.37 478.99 C 1264.55 475.62, 1264.88 473.69, 1266.19 470.22 C 1267.50 466.75, 1268.56 464.85, 1270.91 461.62 C 1273.27 458.39, 1274.85 456.79, 1277.95 454.07 C 1281.06 451.36, 1282.89 450.09, 1286.45 448.04 C 1290.01 445.98, 1292.05 445.10, 1295.76 443.80 C 1299.47 442.51, 1301.44 442.06, 1304.98 441.58 C 1308.53 441.09, 1310.36 441.14, 1313.48 441.39 C 1316.60 441.64, 1318.17 441.99, 1320.59 442.81 C 1323.01 443.62, 1323.76 444.31, 1325.59 445.47 C 1327.41 446.62, 1328.13 447.47, 1329.72 448.58 C 1331.31 449.70, 1331.86 450.34, 1333.54 451.05 C 1335.22 451.77, 1336.28 452.57, 1338.11 452.15 C 1339.94 451.73, 1341.78 450.69, 1342.70 448.96" style="stroke: black; fill: black;"/><path d="M 1445.78,460.01 C 1446.75 458.24, 1446.63 456.50, 1445.83 454.13 C 1445.02 451.76, 1444.04 450.32, 1441.73 448.16 C 1439.43 446.00, 1437.63 444.66, 1434.30 443.32 C 1430.98 441.99, 1428.89 441.89, 1425.12 441.49 C 1421.36 441.08, 1419.57 441.09, 1415.48 441.32 C 1411.39 441.55, 1409.09 441.74, 1404.67 442.64 C 1400.26 443.55, 1397.84 444.18, 1393.41 445.84 C 1388.98 447.50, 1386.67 448.57, 1382.53 450.96 C 1378.38 453.35, 1376.29 454.72, 1372.69 457.78 C 1369.08 460.85, 1367.24 462.62, 1364.48 466.30 C 1361.71 469.99, 1360.34 472.07, 1358.86 476.21 C 1357.38 480.35, 1356.92 482.67, 1357.09 486.99 C 1357.27 491.31, 1357.80 493.74, 1359.74 497.81 C 1361.68 501.88, 1363.24 503.95, 1366.77 507.36 C 1370.31 510.77, 1372.64 512.32, 1377.41 514.87 C 1382.17 517.42, 1384.96 518.53, 1390.58 520.11 C 1396.21 521.69, 1399.39 522.22, 1405.53 522.77 C 1411.68 523.33, 1415.01 523.32, 1421.31 522.88 C 1427.60 522.44, 1430.94 521.91, 1437.01 520.57 C 1443.08 519.24, 1446.25 518.29, 1451.66 516.21 C 1457.07 514.13, 1459.69 512.92, 1464.05 510.16 C 1468.40 507.40, 1470.42 505.89, 1473.44 502.42 C 1476.46 498.94, 1477.68 496.83, 1479.15 492.79 C 1480.62 488.74, 1480.96 486.33, 1480.78 482.19 C 1480.60 478.05, 1479.81 475.95, 1478.26 472.08 C 1476.71 468.20, 1475.57 466.21, 1473.04 462.80 C 1470.51 459.39, 1468.72 457.80, 1465.61 455.05 C 1462.49 452.29, 1460.61 451.12, 1457.45 449.02 C 1454.29 446.92, 1452.56 445.60, 1449.81 444.55 C 1447.06 443.49, 1445.67 443.61, 1443.71 443.74 C 1441.75 443.87, 1441.00 444.57, 1440.01 445.21 C 1439.01 445.86, 1439.00 446.22, 1438.73 446.96 C 1438.46 447.69, 1438.56 448.13, 1438.66 448.88 C 1438.76 449.62, 1438.74 449.83, 1439.23 450.69 C 1439.72 451.54, 1439.93 452.16, 1441.12 453.16 C 1442.30 454.16, 1442.96 454.68, 1445.16 455.69 C 1447.36 456.70, 1449.30 456.83, 1452.13 458.20 C 1454.97 459.57, 1456.68 460.47, 1459.33 462.54 C 1461.99 464.62, 1463.37 465.94, 1465.40 468.57 C 1467.43 471.21, 1468.25 472.86, 1469.49 475.71 C 1470.73 478.56, 1471.29 479.94, 1471.59 482.82 C 1471.90 485.71, 1471.83 487.18, 1471.01 490.13 C 1470.19 493.07, 1469.65 494.69, 1467.49 497.55 C 1465.33 500.40, 1463.86 501.85, 1460.22 504.40 C 1456.58 506.95, 1454.20 508.25, 1449.29 510.30 C 1444.38 512.35, 1441.36 513.35, 1435.68 514.66 C 1430.00 515.97, 1426.81 516.48, 1420.90 516.85 C 1415.00 517.23, 1411.84 517.16, 1406.17 516.52 C 1400.49 515.87, 1397.55 515.25, 1392.53 513.63 C 1387.51 512.01, 1385.06 510.81, 1381.06 508.41 C 1377.06 506.01, 1375.24 504.46, 1372.55 501.61 C 1369.86 498.77, 1368.93 497.17, 1367.61 494.18 C 1366.29 491.19, 1366.04 489.67, 1365.94 486.65 C 1365.83 483.63, 1366.01 482.18, 1367.08 479.10 C 1368.14 476.03, 1369.06 474.32, 1371.24 471.29 C 1373.42 468.26, 1374.93 466.61, 1377.98 463.97 C 1381.04 461.32, 1382.89 460.07, 1386.54 458.05 C 1390.19 456.03, 1392.30 455.14, 1396.24 453.86 C 1400.17 452.57, 1402.35 452.14, 1406.21 451.63 C 1410.07 451.12, 1412.16 451.12, 1415.54 451.31 C 1418.91 451.50, 1420.48 451.79, 1423.07 452.57 C 1425.67 453.35, 1426.62 453.98, 1428.51 455.19 C 1430.40 456.40, 1430.96 457.37, 1432.53 458.62 C 1434.10 459.87, 1434.67 460.55, 1436.36 461.42 C 1438.05 462.29, 1439.07 463.25, 1440.96 462.96 C 1442.84 462.68, 1444.80 461.77, 1445.78 460.01" style="stroke: black; fill: black;"/><path d="M 1507.10,460.45 C 1505.47 460.99, 1504.84 461.64, 1503.86 463.26 C 1502.87 464.88, 1502.34 466.09, 1502.18 468.57 C 1502.03 471.05, 1502.53 472.60, 1503.06 475.66 C 1503.59 478.72, 1504.19 480.42, 1504.82 483.87 C 1505.45 487.32, 1505.69 489.29, 1506.19 492.92 C 1506.69 496.56, 1507.03 498.56, 1507.32 502.05 C 1507.61 505.54, 1507.34 507.45, 1507.65 510.36 C 1507.95 513.27, 1507.86 514.76, 1508.82 516.60 C 1509.78 518.44, 1510.75 519.27, 1512.46 519.55 C 1514.17 519.83, 1515.94 519.42, 1517.36 518.00 C 1518.78 516.57, 1519.80 514.98, 1519.56 512.42 C 1519.33 509.86, 1517.68 508.41, 1516.19 505.20 C 1514.69 501.99, 1513.50 500.00, 1512.08 496.36 C 1510.66 492.72, 1510.05 490.66, 1509.10 487.00 C 1508.15 483.35, 1507.71 481.53, 1507.33 478.08 C 1506.95 474.64, 1506.98 472.95, 1507.21 469.78 C 1507.44 466.60, 1507.68 465.07, 1508.49 462.22 C 1509.30 459.36, 1509.72 458.02, 1511.24 455.48 C 1512.76 452.94, 1513.65 451.74, 1516.09 449.51 C 1518.52 447.29, 1519.99 446.16, 1523.41 444.35 C 1526.83 442.54, 1528.83 441.68, 1533.17 440.48 C 1537.52 439.27, 1540.57 438.98, 1545.15 438.33 C 1549.73 437.68, 1552.38 437.86, 1556.07 437.23 C 1559.77 436.61, 1562.16 436.55, 1563.64 435.21 C 1565.13 433.87, 1565.12 431.79, 1563.50 430.55 C 1561.87 429.31, 1559.41 429.11, 1555.50 429.01 C 1551.60 428.92, 1548.85 429.35, 1543.96 430.07 C 1539.06 430.79, 1535.89 431.30, 1531.02 432.62 C 1526.15 433.95, 1523.80 434.71, 1519.60 436.68 C 1515.41 438.66, 1513.36 439.76, 1510.04 442.49 C 1506.72 445.22, 1505.20 446.93, 1503.00 450.33 C 1500.81 453.74, 1500.13 455.77, 1499.06 459.54 C 1497.98 463.31, 1497.83 465.27, 1497.63 469.18 C 1497.42 473.10, 1497.58 475.12, 1498.02 479.11 C 1498.47 483.10, 1499.04 485.10, 1499.84 489.12 C 1500.64 493.14, 1501.28 495.20, 1502.04 499.21 C 1502.80 503.23, 1502.95 505.61, 1503.63 509.20 C 1504.30 512.80, 1503.99 514.83, 1505.40 517.18 C 1506.82 519.53, 1508.38 520.35, 1510.70 520.94 C 1513.02 521.54, 1515.08 521.28, 1516.98 520.17 C 1518.88 519.06, 1519.66 517.65, 1520.18 515.40 C 1520.71 513.14, 1520.05 511.81, 1519.62 508.87 C 1519.19 505.93, 1518.61 504.15, 1518.04 500.72 C 1517.47 497.28, 1517.12 495.26, 1516.78 491.69 C 1516.44 488.12, 1516.31 486.25, 1516.34 482.87 C 1516.37 479.49, 1516.80 477.78, 1516.94 474.79 C 1517.09 471.80, 1517.44 470.25, 1517.07 467.92 C 1516.70 465.59, 1516.11 464.61, 1515.10 463.14 C 1514.09 461.68, 1513.60 461.12, 1512.00 460.58 C 1510.40 460.04, 1508.72 459.91, 1507.10 460.45" style="stroke: black; fill: black;"/></svg>